<?xml version="1.0" encoding="utf-8"?>
<!-- (c) ammap.com | SVG map of Brazil - Low -->
<svg xmlns="http://www.w3.org/2000/svg" xmlns:amcharts="http://amcharts.com/ammap" xmlns:xlink="http://www.w3.org/1999/xlink" version="1.1">
	<defs>
		<style type="text/css">
			.land
			{
				fill: #CCCCCC;
				fill-opacity: 1;
				stroke:white;
				stroke-opacity: 1;
				stroke-width:0.5;
			}
		</style>

		<amcharts:ammap projection="mercator" leftLongitude="-74.008595" topLatitude="5.275696" rightLongitude="-34.789914" bottomLatitude="-33.744725"></amcharts:ammap>

		<!-- All areas are listed in the line below. You can use this list in your script. -->
		<!--{id:"BR-AC"},{id:"BR-AL"},{id:"BR-AM"},{id:"BR-AP"},{id:"BR-BA"},{id:"BR-CE"},{id:"BR-DF"},{id:"BR-ES"},{id:"BR-GO"},{id:"BR-MA"},{id:"BR-MG"},{id:"BR-MS"},{id:"BR-MT"},{id:"BR-PA"},{id:"BR-PB"},{id:"BR-PE"},{id:"BR-PI"},{id:"BR-PR"},{id:"BR-RJ"},{id:"BR-RN"},{id:"BR-RO"},{id:"BR-RR"},{id:"BR-RS"},{id:"BR-SC"},{id:"BR-SE"},{id:"BR-SP"},{id:"BR-TO"}-->

	</defs>
	<g fill="url(#7v2uy36n)">
		<path id="BR-AC" title="Acre" class="land" d="M -121.4 167.8 L -123.5 167.7 L -123.2 165.1 L -124.7 163.9 L -124.5 162.3 L -125.3 160.4 L -126.4 159.7 L -132 158.5 L -139.3 158.3 L -135.7 154.2 L -135.6 151.8 L -137.1 150.4 L -138.8 147.5 L -140.5 146.9 L -141.6 145.7 L -142.5 143.4 L -144.5 141.8 L -146.4 136.6 L -148.2 135.5 L -148.3 134.3 L -147.5 134.4 L -147.1 133.9 L -147.2 132.8 L -149.3 131.9 L -151.9 129.3 L -150.7 127.6 L -150.7 126.3 L -147.2 125.5 L -147.4 124.1 L -148.6 122.6 L -148.6 122.6 L -130.7 130.1 L -94.9 138.9 L -68.4 153 L -39.9 165.2 L -39.9 165.2 L -36.9 166.4 L -36.9 166.4 L -40.9 169.1 L -43.8 171.9 L -45.4 172.8 L -47.6 172.8 L -47.6 173.4 L -51.6 175.6 L -53.5 178.7 L -54.1 178.9 L -56.1 178.1 L -59.1 178.4 L -62.5 183.2 L -67.2 185.1 L -70.1 185.6 L -70 183.5 L -80.2 182.5 L -85.3 182.9 L -85.9 182.3 L -88.2 182.1 L -91.8 183.9 L -94.5 184.6 L -96.2 183.9 L -97.6 182.5 L -99.2 183.6 L -98.9 161 L -97.4 158.7 L -98.6 158.9 L -103.1 162.5 L -105.2 164.9 L -107.1 165.6 L -107.8 166.6 L -109.6 167.6 z"/>
		<path id="BR-AL" title="Alagoas" class="land" d="M 410 160.3 L 409.8 159.6 L 406.9 158.6 L 406.4 157.2 L 406.4 157.2 L 408.4 155 L 410.5 154.3 L 413.8 149.7 L 414.8 150.9 L 417.6 151.1 L 422 155.2 L 425.7 156.8 L 428.2 156.1 L 432.5 156.3 L 434.4 155.2 L 435.5 155.3 L 437.4 154.2 L 441.2 150.2 L 443.2 150 L 445.4 150.8 L 449.5 149.3 L 454.6 150.6 L 454.6 150.6 L 451.8 155.6 L 443.7 164.3 L 440.6 168.9 L 437.3 171.7 L 435 175.6 L 435 175.6 L 434.4 174.3 L 426.9 169.8 L 425.6 167.3 L 420.2 164.2 L 416.5 163.3 z"/>
		<path id="BR-AM" title="Amazonas" class="land" d="M 13.9 -22.7 L 15.4 -21.6 L 17.8 -21.9 L 17.8 -20.9 L 19.1 -19.8 L 22.3 -19.5 L 24.7 -17.9 L 23.1 -13.1 L 25.8 -9.3 L 27.5 -4.6 L 27.7 -2.3 L 28.6 -0.7 L 27 0.7 L 28 3.9 L 26.6 7.9 L 26.9 12.9 L 27.8 15.1 L 29.6 16.8 L 30.7 21.1 L 29.5 23 L 27.7 22.7 L 27.6 23.8 L 32.6 28.3 L 35.1 29.6 L 37.6 33.3 L 39.4 32.9 L 41.8 34 L 41.4 31.9 L 42.1 29.6 L 42 26.1 L 42.8 23.1 L 43.8 21.8 L 47.2 20.4 L 47.8 19.5 L 49.4 19.5 L 52.2 20.4 L 54.1 22.4 L 55 25 L 56.8 25.2 L 59.5 23.3 L 61.5 22.8 L 61.9 21.8 L 60.8 20.4 L 60.7 19 L 61.9 15.3 L 65.9 9 L 65.8 8.3 L 84.3 8.4 L 84.3 8.4 L 84.5 17 L 86.6 18.9 L 86.2 21.7 L 88 23.7 L 89.1 23.7 L 90.9 24.9 L 91.8 28.1 L 96.5 31.9 L 101 34.4 L 103 36.4 L 112.2 40 L 113.6 42 L 116.3 43.4 L 117.4 45.6 L 119.2 46.4 L 121.5 45.4 L 121.5 46.7 L 123.3 48.4 L 93.4 112.6 L 90.6 116 L 91.4 119.5 L 94.4 122.2 L 95.8 126 L 95.8 126 L 94.4 127.8 L 94.4 130.4 L 92 133.7 L 93.2 137.9 L 90.6 147.3 L 89.4 148 L 41.6 148.3 L 41.6 148.3 L 41.2 147.3 L 39.8 147 L 37.9 148.1 L 37.4 149.8 L 36.7 150 L 33.5 148.5 L 32.8 145.6 L 30.7 145.4 L 29.5 142.1 L 26.9 141.1 L 25.6 139.8 L 24.4 137.4 L 22.2 136.3 L 11.4 136.4 L 10 138.9 L 8.3 139.4 L 8.4 140.6 L 5.7 141.3 L 4.5 142.9 L 4.4 143.6 L 5.5 144.8 L 4.3 146.9 L 2.3 148.1 L 2.4 151.4 L -1.5 150.9 L -3.6 151.3 L -4.8 152.4 L -7.9 151.7 L -9.6 153 L -10.2 153.8 L -9.9 155.6 L -12.5 158.7 L -13.8 158.3 L -14.8 155.9 L -18 158.2 L -21.2 158.9 L -21.7 160.2 L -23 161 L -26.4 158.3 L -33.2 158.4 L -33.2 160.2 L -34.7 162 L -36.6 162.6 L -39.9 165.2 L -39.9 165.2 L -68.4 153 L -94.9 138.9 L -130.7 130.1 L -148.6 122.6 L -148.6 122.6 L -148 119 L -146.8 117.6 L -141.8 114.1 L -139.1 113.6 L -138.1 112 L -138 111 L -139.8 106.5 L -138.2 103.1 L -135.6 99.6 L -135.6 96.5 L -134.6 92.2 L -133.9 91.4 L -128 88.6 L -126.9 87.5 L -126.4 86.1 L -124.3 85.6 L -119.1 82 L -115.1 81.8 L -107.6 79.5 L -104.3 79.9 L -102.4 76.8 L -101.3 76.2 L -99.1 76.4 L -98.5 77 L -96.1 76 L -94.4 76.1 L -94.1 77.8 L -92.5 79.1 L -89.6 79.2 L -88.6 78 L -80.8 35.5 L -79.7 32.6 L -80.5 27.4 L -81.8 26.3 L -83.3 23.6 L -82.7 21.7 L -83.2 19.9 L -88.3 16.6 L -90.3 14.3 L -90.1 2.8 L -86.2 2.5 L -84.4 1.4 L -80.9 0.4 L -78.3 2.2 L -75.8 1.9 L -76.3 0.2 L -76 -1.5 L -77.9 -4.2 L -79 -4.8 L -80.6 -4.2 L -83.3 -4.8 L -86.9 -4.8 L -87 -14.7 L -82.4 -15.8 L -79.6 -14.9 L -60.5 -14.9 L -61.8 -15.7 L -62.2 -16.9 L -61.2 -18.8 L -59.8 -18.4 L -58.3 -15.6 L -56.8 -15.2 L -55.2 -15.8 L -51.7 -20 L -49.1 -21.4 L -47.9 -20.9 L -43.7 -13.3 L -43.7 -6.3 L -40.5 -7.1 L -31.4 0.3 L -28.9 0.5 L -26.6 -0.5 L -22.8 -3.4 L -20.6 -3.5 L -19.3 -2.1 L -19.3 -1.1 L -20.4 0.6 L -19.5 1.8 L -18.1 1.1 L -16.4 -2.3 L -14.3 -2.5 L -13.5 -5.5 L -8.5 -8 L -7.5 -7.4 L -6.6 -7.7 L -5 -8.8 L -4 -10.4 L -1.9 -11.6 L 0.1 -11 L 3.1 -13.5 L 3.5 -17.4 L 4.2 -18.4 L 8.3 -19.2 L 10.4 -20.8 L 13.6 -21.5 z"/>
		<path id="BR-AP" title="Amapá" class="land" d="M 193.1 29.7 l -3 0.4 l -2.8 -0.7 l -1.5 -1 l -0.4 -1.5 l -1.9 -1.4 l -0.2 -3.6 l -1.3 -0.7 l -0.4 -0.9 l 0.1 -2.4 l -2.9 -3.3 l -1.6 0.2 l -1.5 -3.5 l 0.1 -1.6 l -1.9 -3.9 l 0.2 -5.3 l -2.7 -1.1 l -2 -2.3 l -0.8 -2.8 l 0.9 -1 l -0.5 -1.2 l -0.7 0 l -2.8 -2.7 l -1.3 0.6 l -2.2 -0.1 l -1.9 -1.8 l -1.2 -0.1 l -1.2 -2.1 l -1.9 -1 l -4.7 -0.9 l -2.3 0.3 l -0.5 -2 l 0.3 -4.5 l 0.6 -1.3 l -0.4 -2.3 l -0.6 -0.6 l 0 0 l 1.3 0.1 l 0 2 l 2.3 0.2 l 1.2 1.6 l 5.5 1.5 l 5.7 -4 l 0.7 0.9 l 2.7 0.9 l 3.3 -1.5 l 1.5 1.3 l -0.2 0.9 l 2.4 -0.2 l 2.1 0.7 l 4.4 -3.1 l 1.8 -2.3 l 0.2 -1.5 l 3.1 -6.5 l 0.1 -1.8 l 1.8 -1.5 l 3.6 -5.8 l 0.2 -1.1 l 2.6 -2.8 l 0.6 -1.7 l 3.6 -2.6 l -0.1 -3.6 l 4.5 3.6 l 1.4 2.4 l 0 1.6 l 0.4 0.3 l 0.7 -0.6 l 0.2 0.4 l 0.2 7.9 l 0.7 3.9 l 2.7 6 l 2.7 8.9 l 3.3 5 l 4.3 0.3 l 4.1 1.8 l 0.8 2.6 l -0.2 3.3 l -3.4 1.7 l 2.8 -0.6 l 0.4 0.8 l -0.2 0.7 l -5 4.1 l -1.2 2.1 l -2.1 1.4 l -1.9 3.7 l -2.9 3.5 l -3.1 0.9 l -2.1 3 l -1.3 0.1 l -2.2 2.6 l -2.1 4.1 l -3.8 4.1 l -0.2 4.2 l -1.9 1.8 L 193.1 29.7 z M 216.5 -17.3 l -1.6 -2.2 l 0.1 -0.9 l 1.9 -0.9 l 1.3 2.7 L 216.5 -17.3 z M 219 0.3 l -0.5 -1 l 1.1 -1.1 l 2.1 0.1 l 0.9 -0.8 l -0.9 2 L 219 0.3 z"/>
		<path id="BR-BA" title="Bahia" class="land" d="M 375.6 295.3 l -0.4 -0.8 l 0.7 -1.9 l -0.5 -1 l -4.1 -3.1 l 0.1 -2 l -0.6 -1.2 l -1.4 0.6 l 1.3 -7.7 l 0.8 -0.9 l 2.5 0.2 l 1 -0.7 l -0.6 -1.4 l 0.2 -2.7 l 5 -4.2 l 1.5 -3.1 l -1.2 -2.2 l -1.6 -0.4 l -2.8 -2.5 l -2.1 0 l -4.5 -1.7 l -4.7 -0.7 l -2.8 1.5 l -3.2 -0.2 l -0.4 -4 l -6.5 -6.2 l -4.8 1.1 l -1.5 -1.2 l -1.4 0 l -2.5 -1.2 l -2.2 -1.6 l -1 0.2 l -4.3 -3.6 l -3.8 -1.3 l -3.7 1.2 l -1.4 1.3 l -5.3 -1.5 l -0.6 -0.5 l -0.3 -1.5 l 1.4 -3.6 l -3.1 -1 l -5.2 -0.6 l -3.8 1.6 l -4.3 3 l -0.6 1.1 l -3.4 1.9 l -2 0.4 l -2.8 2.7 l -2.4 0.4 l -2.9 3.3 l -2.8 -0.3 l -2 1.9 l -0.4 -0.2 l 1.4 -3.4 l -0.5 -2.4 l 0 0 l 1.7 -2.7 l -0.9 -3 l 0.8 -2.6 l -3.2 -2.6 l -1.7 -3.5 l -0.6 -3.5 l 1.2 -5.4 l 1.8 -1.4 l 0.1 -0.9 l -1.7 -1.2 l 0.5 -2.5 l 1.4 -1.4 l -2.7 -2.5 l 0 0 l 0 -0.9 l 1.4 -2.4 l -0.2 -1.5 l -2.4 -1.1 l -0.1 -5 l 4.1 -2.8 l -0.9 -1.1 l -2 -0.1 l -0.4 -0.8 l 0.4 -1 l 2.6 -1.3 l 0 -0.8 l -1.9 -1 l -3.6 -0.7 l -1.9 -2 l -0.2 -0.9 l 1.5 -1.9 l 1.5 -3.5 l 2.3 -1.3 l -1.1 -2.2 l 3.2 -2.6 l 3.8 -2 l 1.5 -2.1 l 0 0 l 2.3 0 l 1.4 1.3 l 1.2 3.3 l 1.8 2.5 l 4.2 1.9 l 1.8 -0.5 l 2.1 0.2 l 1.1 -1.7 l 1.1 -0.4 l 1.8 -1.8 l 2.2 -0.8 l 2.8 0.7 l 1.3 -0.4 l 3 -2.4 l 3.9 -6.8 l 0.2 -3.7 l -2.2 -4.4 l 0.1 -0.9 l 3.2 -1.6 l 2 0 l 1.5 0.5 l 0.7 1.1 l 3.5 -1 l 1.3 0.4 l 1.7 1 l 0.1 0.9 l 0.8 0.3 l 6.2 -0.9 l 2.3 -2.6 l 2.7 -0.3 l 1.6 -1.3 l 2.2 0 l 0.9 0.7 l 1.9 -1.8 l -0.1 -2.4 l 2.8 -0.2 l 1 -0.7 l 2 -3.5 l 0 0 l 4.3 0.4 l 2.8 1.4 l 1.1 5.2 l 2.2 0.9 l 0.3 2 l -0.9 1.7 l 1.8 0.6 l 4.7 -2 l 1.3 -4.5 l 2.2 0.4 l 2.4 -1 l 1.1 -1.2 l -0.1 -1.9 l 2.5 -0.7 l 0.8 -2 l 4.8 -2 l 1.5 0.6 l 0.8 1.4 l 1.4 0.8 l 5.3 1.2 l 1.6 1.1 l 0.9 1.9 l 0.7 -1.9 l 1.4 -0.4 l 0.5 0.9 l -0.6 0.9 l 1 1.2 l 2.1 0.9 l 1.2 4 l 0 0 l 0.5 1.4 l 2.9 1 l 0.2 0.7 l 0 0 l -0.7 1.2 l 0.2 2.1 l 1.3 2.5 l 2.7 3.1 l -0.1 3.1 l -0.7 2.5 l 0.8 2.8 l -1 1.1 l -2.5 1 l -1.1 -0.8 l -1.7 0 l -0.9 2.7 l 4 5.3 l -0.3 2.2 l 0.7 0.9 l 4.5 2.6 l 2.9 -0.9 l 0 0 l 1 0.4 l -4.1 8.8 l -3.8 5.2 l -1 2.3 l -5 5.7 l -3.3 1.3 l 0.8 -2.7 l -0.5 -1.9 l -1.9 -0.3 l -1.1 -2.1 l -1.3 3.8 l -1.1 0.1 l -0.5 -1.7 l -0.5 0.4 l 0.9 1.7 l 2 0.3 l -0.5 1.8 l -1.2 1.1 l -0.3 1.8 l -1.6 1.6 l 0 1.7 l -1.3 -0.4 l -0.2 0.4 l 0 1.8 l 0.8 0.2 l 0.7 2.9 l -1 2.5 l 0.6 3.4 l -1.1 0.3 l -0.1 1.1 l 0.6 0.5 l 1.2 -1.7 l -0.5 -2.2 l 0.8 -0.6 l 0.3 0.5 l -2.3 11.6 l 2 16.3 l 1 3.4 l -2.2 6.7 l -3 14.2 l 0.3 6.8 l 0.9 1.7 l -2.2 3 l -2.8 1.3 l -2.7 3.9 L 384 301 l 0 0 L 375.6 295.3 z"/>
		<path id="BR-CE" title="Ceará" class="land" d="M 421.9 86.9 L 417 88.4 L 414.4 90.5 L 411.1 97.1 L 409.4 98.8 L 408.9 101.2 L 407.5 103.7 L 405.5 106.3 L 403.2 106.1 L 400.9 109.2 L 400.6 111.2 L 401.9 111 L 401.9 111 L 399.9 115.7 L 400.4 117 L 398.5 119.3 L 398.4 120.3 L 399.6 121.7 L 399.5 123.3 L 401.5 124.3 L 401.8 125.5 L 399.2 130.4 L 399.2 130.4 L 396.5 131.7 L 395 134 L 393.3 134 L 392.7 132.4 L 390.6 131.3 L 389.1 129.3 L 384.4 126.5 L 380 126.2 L 376.3 127.2 L 370.5 126.8 L 370.5 126.8 L 370.5 125.4 L 369.8 123.8 L 372.4 117.7 L 371.6 116.6 L 367.8 115.5 L 366.8 112.8 L 364.9 105 L 364.2 96.4 L 363.2 95.3 L 364 94.8 L 364.6 93.2 L 363 88.2 L 363.5 86.6 L 362.7 82.7 L 363.5 80.6 L 362.1 79 L 356.4 64.8 L 356.6 63.4 L 359.4 58.8 L 359.4 58.8 L 359.1 57.3 L 359.8 56.5 L 366.5 56.3 L 371.5 55.2 L 378.9 56 L 393.3 64.3 L 394.5 64.5 L 399.8 68.9 L 402.3 69.7 L 404.8 72.6 L 406 73.2 L 408.9 77 L 413.1 80.1 L 415.6 83.1 L 420.6 84.8 z"/>
		<path id="BR-DF" title="Distrito Federal" class="land" d="M 264.8 263.9 L 250.1 263.9 L 249.6 260.6 L 250.5 258.8 L 250.9 255 L 262.9 255 L 264.7 257 L 264 262.9 z"/>
		<path id="BR-ES" title="Espírito Santo" class="land" d="M 349.8 341.4 L 350.5 337.6 L 350 334.1 L 351.8 332 L 357.5 331.7 L 358.4 328.5 L 360.4 324.9 L 360.7 323.2 L 363.9 319.8 L 364.4 316.8 L 364.1 314.4 L 361.8 310.3 L 360.8 310.5 L 359.5 309.5 L 360 309 L 363.2 309.3 L 364.5 308.6 L 364.3 306.9 L 362.8 306.1 L 363.1 302.7 L 361 300.6 L 362.1 298.7 L 364.3 297.4 L 366.8 298.2 L 366.8 297.4 L 365.2 295.1 L 368.7 295 L 370.6 294.1 L 372.2 294 L 375.6 295.3 L 375.6 295.3 L 375.6 295.3 L 375.6 295.3 L 384 301 L 384 301 L 382.8 307.2 L 383.6 317 L 383.3 319.4 L 381.8 322.6 L 378.5 324.6 L 375.1 333.2 L 373.4 332.4 L 373.1 333.7 L 374.5 334.2 L 372.5 338.4 L 369.1 342.3 L 367 342.7 L 366.2 343.9 L 365.7 346.5 L 363.8 349.7 L 363.8 349.7 L 362.2 348.6 L 359.2 349 L 352.4 346.8 L 351.7 342.1 z"/>
		<path id="BR-GO" title="Goiás" class="land" d="M 264.8 263.9 L 264 262.9 L 264.7 257 L 262.9 255 L 250.9 255 L 250.5 258.8 L 249.6 260.6 L 250.1 263.9 L 264.8 263.9 L 264.8 263.9 L 264.8 263.9 L 264.8 263.9 L 264.3 265.4 L 264.6 267 L 262.5 271.3 L 263.3 272.5 L 265.6 273.9 L 267.3 279 L 261.7 284.7 L 261.3 286.9 L 262.4 288 L 263.3 287.5 L 265.3 288.7 L 265.3 290.4 L 264.1 293.2 L 265.3 296.7 L 262.2 298.7 L 261 298.9 L 259.7 300.9 L 254.8 303.7 L 254.1 302.9 L 249.7 301 L 248.6 301.6 L 241.5 301.5 L 239.5 300.6 L 235.4 303.3 L 232.5 306.2 L 230.8 304.8 L 229.3 304.5 L 226.1 306.1 L 222.4 305.5 L 217.7 307 L 214.3 313.8 L 212.2 314.1 L 211.2 314.8 L 209.6 316.9 L 209 318.8 L 209.6 319.8 L 208.4 319.6 L 208.4 319.6 L 205.5 316.9 L 202.3 316.3 L 200.7 314.7 L 197.3 314.2 L 194 312.9 L 189.5 309.9 L 184.3 307.3 L 181.5 307.5 L 177.7 306.8 L 179.6 302.3 L 177.4 301.4 L 175.6 301.8 L 175 300.3 L 175.1 296 L 175.1 296 L 174.2 293.8 L 174 290.3 L 172.4 287.4 L 172.8 284 L 175.4 280.2 L 175.7 277.3 L 180.4 273.9 L 181.6 271.9 L 182.5 268.9 L 184.6 266.4 L 184.6 264.9 L 186.4 263.9 L 187.8 261.3 L 190.4 261.2 L 193.5 260 L 196.2 254.9 L 197.2 250 L 200.8 247.1 L 201.8 246.8 L 203.1 247.5 L 205.7 245.4 L 207.7 239.6 L 207.2 237.6 L 207.8 234.9 L 209.4 231.8 L 209.2 226.6 L 210.5 225.8 L 213.5 220 L 213.7 216.2 L 215 214.5 L 215.2 212.7 L 215.2 212.7 L 216.4 209.2 L 218.8 206.8 L 218.8 208.5 L 217.5 210.4 L 217 212.7 L 221.6 214.1 L 225.6 214.5 L 232.7 217.7 L 233.3 217.4 L 235 211.5 L 237.6 208.1 L 239.8 211.3 L 241.5 218.1 L 242.7 218.2 L 244.3 215.9 L 247 216.2 L 251.6 215.7 L 251.2 218 L 254.4 219.5 L 257.7 220.2 L 258.4 220.1 L 258.9 216.8 L 259.5 216.8 L 261.4 219.7 L 265.7 216.7 L 271.8 215.7 L 276.1 213.2 L 281.5 211.8 L 281.5 211.8 L 284.2 214.3 L 282.8 215.7 L 282.3 218.2 L 284 219.4 L 284 220.4 L 282.2 221.8 L 280.9 227.1 L 281.5 230.7 L 283.2 234.1 L 286.4 236.7 L 285.7 239.3 L 286.6 242.3 L 284.8 245 L 284.8 245 L 283.8 246.1 L 280.6 245.7 L 279.7 244 L 277.3 242.5 L 276.1 244 L 276.7 247.7 L 276.1 248.3 L 273 247.3 L 271.4 247.8 L 270.7 251 L 271.4 251.1 L 271.9 252.2 L 270.6 253.9 L 270.6 255.8 L 271.6 256.6 L 272.3 260.8 L 268.4 262.2 L 266.1 263.8 z"/>
		<path id="BR-MA" title="Maranhão" class="land" d="M 306.7 58.9 l -2.5 2.6 l 0 1.4 l 5.7 -5.6 l 1 -6.3 l 4.6 -1.9 l 0.5 0.1 l -0.1 2.1 l -1.4 1.9 l -3.2 1.8 l 0 0.7 l 0.7 0.1 l 0.4 -0.8 l 1.2 -0.3 l -0.1 1.6 l 4.2 -5 l 0.9 0.3 l 2.6 -0.9 l 4 0.4 l -0.5 -2.4 l 0.6 -0.2 l 2.4 0.1 l 5.5 1.5 l 2.1 1.4 l 1.4 0 l 3.2 2.6 l 3.7 0.4 l 0.6 0.8 l 4.4 0.6 l 0.3 -0.9 l -0.7 -0.5 l 1.7 -0.4 l 0.6 0.1 l -0.1 0.4 l 0 0 l -0.5 1.4 l 0.9 1.3 l -0.4 1.5 l -5.9 6.2 l -4.1 0.3 l -2.9 3.4 l 0 1.8 l -0.9 1.8 l -4.1 5.1 l 0.4 1.9 l 1.2 0.8 l 0.4 1.3 l -1.4 4.3 l 1.6 2.8 l 0.5 5.4 l -4.3 5 l -0.2 2.5 l 0.6 4.4 l 3.6 3.5 l -1.2 6.2 l -1.2 1.3 l -3.8 0.1 l -2.4 0.9 l -1.5 0.1 l -3.5 -2 l -4.7 1 l -5 5.5 l -2.3 0.9 l -2.9 2.6 l -2.4 0.6 l -1.7 1.5 l -6.4 1.4 l -2.1 2 l -2 8.3 l -1.7 3 l -1.7 4.8 l -1.7 1.4 l -0.7 2 l 1.2 5.1 l 1.7 3.1 l -0.8 1.9 l -0.1 6.4 l -1.2 2.5 l -0.3 3 l 0 0 l -2.7 -1.9 l -3.5 -0.3 l -1.3 -2 l -1 -2.9 l -2.1 -1.6 l -0.1 -1.6 l 1.6 -1.8 l -0.1 -0.5 l -3.9 -1.9 l -1.4 -4.3 l -3.2 -1.4 l 2.9 -3.3 l -0.4 -1.3 l 1.4 -4.1 l 1.9 -1.1 l 3.4 -0.4 l -0.4 -1.4 l 0.6 -5 l -1.8 -1.2 l -4.3 0.9 l -2.2 1.3 l -6.2 -8 l -0.9 0.1 l -0.8 -1.4 l 0.6 -1.2 l -0.4 -1.2 l -1.8 0 l -1.9 -1.3 l 0.2 -0.7 l 1.8 -0.7 l 1.8 -2 l 0.3 -5 l 1.8 -6.2 l -0.9 -2.7 l 0.2 -3.7 l -1.1 -5 l -0.8 -1 l -4.6 -1.5 l -1 -2 l -4.1 0.1 l -2.8 -1.5 l -2.8 0.5 l -3.2 2.5 l 0 0 l -0.5 -0.1 l 14.7 -11.8 l 2.3 0.2 l 1.2 -0.9 l 2 -3.3 l 1.5 -1.2 l 0.6 -2.9 l 3.6 -2.8 l 2.3 -7.8 l 2 -1.5 l 2.3 -3.2 l 0.3 -3.1 l 0.8 -0.8 l -1 -1.6 l 3.7 -3.1 l 0.4 -4 l 2.1 -2.3 l 1 -4.6 l -0.4 -0.5 l -1 0.2 l -0.2 -1.1 l 1.1 -0.1 l 0.6 -0.7 l 0.5 -5.8 l 1.2 -1.5 l 0 0 l 0.9 -0.2 l 0.9 -1.8 l 1.3 1 l 0.4 1.8 l 1.2 0.1 l 0.8 -1.4 l 0.6 2.9 l 1 0 l 0.4 -1.4 l 2.5 0.5 l 0.5 0.7 l -1.4 1.7 l 0.7 1.3 l 1.7 -3.6 l 0.5 0 l 0.4 1.6 l -1.1 1.9 l 0.1 2.7 l 0.7 0.5 l 1.5 -1.1 l -0.3 -1.6 l 1.3 -1.4 l 1.1 -0.3 l 2.1 0.6 l 1.5 -1.1 l 0 0.9 l -1.5 1.7 l 0.6 0.6 l 1.4 -1 l 0.6 0.8 l -0.1 1.2 l 1.6 1.8 l 0.9 -0.4 l 1.6 0.7 l 0.8 2.4 l -0.1 1 l -2.2 2.7 l -0.3 1.5 l 2.3 -2.7 l 0.8 0 l 0.9 0.8 l 0.5 1.9 l -0.3 1.2 l -1 0.2 l -2.2 2.4 l -1.7 6.7 L 306.7 58.9 z"/>
		<path id="BR-MG" title="Minas Gerais" class="land" d="M 375.6 295.3 L 372.2 294 L 370.6 294.1 L 368.7 295 L 365.2 295.1 L 366.8 297.4 L 366.8 298.2 L 364.3 297.4 L 362.1 298.7 L 361 300.6 L 363.1 302.7 L 362.8 306.1 L 364.3 306.9 L 364.5 308.6 L 363.2 309.3 L 360 309 L 359.5 309.5 L 360.8 310.5 L 361.8 310.3 L 364.1 314.4 L 364.4 316.8 L 363.9 319.8 L 360.7 323.2 L 360.4 324.9 L 358.4 328.5 L 357.5 331.7 L 351.8 332 L 350 334.1 L 350.5 337.6 L 349.8 341.4 L 349.8 341.4 L 347.2 343.7 L 345.4 344.5 L 346.2 345.2 L 341.9 355 L 341.8 355.7 L 343.3 355.8 L 343.3 357 L 331.3 362.5 L 329.9 362.7 L 329.5 362 L 326.9 361.8 L 323.5 362.9 L 319.4 362.8 L 312.6 366.1 L 309.5 366 L 303.5 368.6 L 303.5 368.6 L 302.2 369.3 L 300 369.5 L 295.1 372.4 L 290.3 372.6 L 290.6 371.3 L 289.4 371.6 L 289.4 375 L 288.7 376 L 287.4 376.3 L 286.8 375.8 L 283.2 376.8 L 283 376.3 L 279.9 376.3 L 277.8 373 L 279 372.3 L 278.5 370.6 L 274.9 368.5 L 274.2 366.9 L 274.8 365.3 L 274.7 359 L 276.5 356.2 L 277.3 352.8 L 273.4 351.1 L 269.7 351.9 L 268.9 349 L 267.6 347.2 L 267.2 345 L 266.1 343.7 L 266.3 341.7 L 267.9 339.1 L 267.5 337.6 L 265 335.8 L 265.9 332.4 L 265.7 331.3 L 262.4 328 L 260.3 328.9 L 258.6 328.1 L 256.2 328.3 L 255.7 330.3 L 252.9 331 L 250.3 329.1 L 249.3 330.4 L 241.1 331 L 240.2 332.7 L 240.4 335.3 L 240 335.7 L 238.8 335.2 L 238.8 332.4 L 238.2 331 L 237.4 331.2 L 236.3 333.3 L 235.2 333.6 L 233.9 331.5 L 233.8 329.1 L 229.9 326.9 L 224.6 327.6 L 217.8 326.6 L 215.3 324.9 L 213.8 325.5 L 212.4 327.2 L 210.4 327.6 L 207.1 329.8 L 207.1 329.8 L 207.4 327.2 L 206.8 324 L 207.8 319.8 L 208.4 319.6 L 208.4 319.6 L 209.6 319.8 L 209 318.8 L 209.6 316.9 L 211.2 314.8 L 212.2 314.1 L 214.3 313.8 L 217.7 307 L 222.4 305.5 L 226.1 306.1 L 229.3 304.5 L 230.8 304.8 L 232.5 306.2 L 235.4 303.3 L 239.5 300.6 L 241.5 301.5 L 248.6 301.6 L 249.7 301 L 254.1 302.9 L 254.8 303.7 L 259.7 300.9 L 261 298.9 L 262.2 298.7 L 265.3 296.7 L 264.1 293.2 L 265.3 290.4 L 265.3 288.7 L 263.3 287.5 L 262.4 288 L 261.3 286.9 L 261.7 284.7 L 267.3 279 L 265.6 273.9 L 263.3 272.5 L 262.5 271.3 L 264.6 267 L 264.3 265.4 L 264.8 263.9 L 266.1 263.8 L 268.4 262.2 L 272.3 260.8 L 271.6 256.6 L 270.6 255.8 L 270.6 253.9 L 271.9 252.2 L 271.4 251.1 L 270.7 251 L 271.4 247.8 L 273 247.3 L 276.1 248.3 L 276.7 247.7 L 276.1 244 L 277.3 242.5 L 279.7 244 L 280.6 245.7 L 283.8 246.1 L 284.8 245 L 284.8 245 L 285.4 247.5 L 283.9 250.9 L 284.3 251.1 L 286.4 249.2 L 289.2 249.5 L 292.1 246.1 L 294.5 245.7 L 297.3 243 L 299.3 242.6 L 302.7 240.8 L 303.3 239.6 L 307.6 236.6 L 311.4 235 L 316.6 235.7 L 319.7 236.6 L 318.3 240.3 L 318.5 241.8 L 319.1 242.3 L 324.5 243.7 L 325.9 242.4 L 329.6 241.3 L 333.4 242.6 L 337.8 246.2 L 338.7 246 L 340.9 247.7 L 343.4 248.9 L 344.9 248.9 L 346.4 250.1 L 351.2 249.1 L 357.7 255.3 L 358.1 259.2 L 361.3 259.5 L 364.1 258 L 368.8 258.7 L 373.3 260.4 L 375.4 260.4 L 378.2 262.8 L 379.8 263.3 L 381 265.5 L 379.6 268.5 L 374.6 272.8 L 374.5 275.4 L 375 276.9 L 374 277.6 L 371.5 277.3 L 370.7 278.2 L 369.4 285.9 L 370.8 285.3 L 371.3 286.5 L 371.3 288.5 L 375.4 291.6 L 375.9 292.6 L 375.3 294.5 z"/>
		<path id="BR-MS" title="Mato Grosso do Sul" class="land" d="M 207.1 329.8 L 206.4 332.7 L 203.1 333.7 L 199.9 337.4 L 198.2 338.4 L 197.4 343 L 193.6 347.5 L 193.8 350.4 L 190.6 355 L 190.7 357.1 L 189.2 358.1 L 185.9 363.4 L 183.9 365.3 L 176.3 369.8 L 173.5 373.6 L 173.5 373.6 L 167 376.7 L 164.6 383.7 L 160.9 386.1 L 158.9 394.8 L 156.5 396.4 L 156.5 396.4 L 154 394.1 L 150.6 392.2 L 144.3 395.4 L 141.7 395.8 L 138.3 394.7 L 137.8 390.4 L 136.6 388.8 L 136.4 386.3 L 136.9 385 L 136.2 383.7 L 136.2 380.9 L 134.7 376.2 L 135.2 372.5 L 133.7 371.4 L 133.1 368.4 L 131.5 366.6 L 126 366.4 L 123.5 364.4 L 122.9 362.9 L 121.4 363.2 L 119.2 366 L 118.2 365.4 L 115.4 366.3 L 111.1 365.2 L 107.7 365.4 L 104 364.7 L 103.5 363.8 L 101.5 363.6 L 100.7 364.2 L 98.2 363.3 L 99.1 356 L 98.6 353.6 L 100.2 350.8 L 100.8 344.7 L 100.1 340.7 L 99.3 339.7 L 98.4 340.3 L 97.8 337 L 95.8 333.1 L 95.4 331.3 L 100.2 328.1 L 96 324.2 L 101.4 312.8 L 102.5 312.8 L 102.2 310.6 L 101.5 310.5 L 105.4 299 L 102.3 293.2 L 102.3 291.3 L 102.3 291.3 L 106.2 294.1 L 111.8 292.1 L 113.9 290.1 L 115.9 287.2 L 116 286 L 117.4 284.5 L 122.3 284.7 L 124 284.2 L 125.3 282.9 L 127.3 282.4 L 128.6 282.6 L 129.4 283.8 L 132.2 285 L 135.4 285.9 L 136.5 287.7 L 142 290.6 L 146.5 289.9 L 149.7 287.7 L 152.1 287.8 L 153.7 288.8 L 154.3 290.4 L 158.4 289.6 L 164 283.6 L 165.4 283.5 L 164.1 290.1 L 162.3 290.8 L 160.7 293.6 L 160.6 294.6 L 161.9 294.7 L 163.7 296 L 175.1 296 L 175.1 296 L 175 300.3 L 175.6 301.8 L 177.4 301.4 L 179.6 302.3 L 177.7 306.8 L 181.5 307.5 L 184.3 307.3 L 189.5 309.9 L 194 312.9 L 197.3 314.2 L 200.7 314.7 L 202.3 316.3 L 205.5 316.9 L 208.4 319.6 L 208.4 319.6 L 207.8 319.8 L 206.8 324 L 207.4 327.2 z"/>
		<path id="BR-MT" title="Mato Grosso" class="land" d="M 55.1 226.1 L 60.7 222.1 L 62.6 215.8 L 63.5 214.7 L 65.6 213.8 L 66.7 210.7 L 68.4 208.7 L 69 204.8 L 68.5 201.2 L 66.9 197.9 L 65.5 197.4 L 65 194.1 L 65.2 192.8 L 66.5 191.7 L 68.1 189.2 L 66.7 185.7 L 64.5 185.1 L 61 185.2 L 59.8 184.1 L 60 183.5 L 42.9 183.5 L 43.8 174.5 L 42.3 171.7 L 42 170 L 43 165.7 L 42.6 163.7 L 43.6 162.1 L 42.6 158.4 L 41.5 157 L 43.6 150.6 L 43 149.3 L 41.6 148.3 L 41.6 148.3 L 89.4 148 L 90.6 147.3 L 93.2 137.9 L 92 133.7 L 94.4 130.4 L 94.4 127.8 L 95.8 126 L 95.8 126 L 99.4 131.1 L 101.2 136.8 L 103.3 140.4 L 103.1 142.8 L 104.3 147.4 L 108.8 151.3 L 112.2 153 L 112.6 155.5 L 116 156.2 L 117.1 158.3 L 118.5 157.9 L 122.1 159.3 L 156.2 161.8 L 219.2 165.2 L 219.2 165.2 L 217.9 168.2 L 216.8 169.4 L 216.4 172.5 L 213.7 179 L 213.1 184.9 L 211.2 190.9 L 211.3 191.7 L 212.7 193.1 L 211.6 195.3 L 212.7 197.6 L 212.3 202.5 L 212.8 203 L 213.2 206.1 L 212.5 208.8 L 213.5 212.2 L 215.2 212.7 L 215.2 212.7 L 215 214.5 L 213.7 216.2 L 213.5 220 L 210.5 225.8 L 209.2 226.6 L 209.4 231.8 L 207.8 234.9 L 207.2 237.6 L 207.7 239.6 L 205.7 245.4 L 203.1 247.5 L 201.8 246.8 L 200.8 247.1 L 197.2 250 L 196.2 254.9 L 193.5 260 L 190.4 261.2 L 187.8 261.3 L 186.4 263.9 L 184.6 264.9 L 184.6 266.4 L 182.5 268.9 L 181.6 271.9 L 180.4 273.9 L 175.7 277.3 L 175.4 280.2 L 172.8 284 L 172.4 287.4 L 174 290.3 L 174.2 293.8 L 175.1 296 L 175.1 296 L 163.7 296 L 161.9 294.7 L 160.6 294.6 L 160.7 293.6 L 162.3 290.8 L 164.1 290.1 L 165.4 283.5 L 164 283.6 L 158.4 289.6 L 154.3 290.4 L 153.7 288.8 L 152.1 287.8 L 149.7 287.7 L 146.5 289.9 L 142 290.6 L 136.5 287.7 L 135.4 285.9 L 132.2 285 L 129.4 283.8 L 128.6 282.6 L 127.3 282.4 L 125.3 282.9 L 124 284.2 L 122.3 284.7 L 117.4 284.5 L 116 286 L 115.9 287.2 L 113.9 290.1 L 111.8 292.1 L 106.2 294.1 L 102.3 291.3 L 102.3 291.3 L 101.4 289.8 L 101.9 289.1 L 99.5 286.9 L 97.7 287.5 L 91.8 283.6 L 90.5 274.2 L 92.5 271.4 L 92.8 267.8 L 91.8 267.8 L 91.1 268.6 L 64.2 267.5 L 63.2 254.8 L 57.8 248.7 L 62.7 248.7 L 62.3 241.1 L 59.2 233.8 L 60.7 230.9 L 59.3 228 L 56.2 227 z"/>
		<path id="BR-PA" title="Pará" class="land" d="M 219.2 165.2 l -63 -3.5 l -34 -2.4 l -3.7 -1.5 l -1.4 0.4 l -1.1 -2.1 l -3.4 -0.7 l -0.4 -2.5 l -3.4 -1.7 l -4.5 -3.9 l -1.2 -4.6 l 0.2 -2.4 l -2.1 -3.6 l -1.8 -5.7 l -3.6 -5.1 l 0 0 l -1.3 -3.8 l -3 -2.7 L 90.6 116 l 2.8 -3.4 l 29.9 -64.2 l -1.8 -1.7 l -0.1 -1.3 l -2.2 1 l -1.9 -0.8 l -1.1 -2.2 l -2.7 -1.5 l -1.4 -1.9 l -9.2 -3.6 l -2 -2 l -4.6 -2.5 l -4.6 -3.8 l -0.9 -3.2 l -1.8 -1.2 l -1.1 0 l -1.8 -2 l 0.4 -2.8 l -2.1 -1.9 l -0.2 -8.6 l 0 0 l -1.6 -17 l 0 0 l 1.6 1.8 l 0.9 0.3 l 1.8 -1.5 l 2.7 0.2 l 0.8 -1 l -0.5 -1.8 l 1.8 -0.4 l 1.4 -1.6 l 2.6 1 l 1.9 0 l 0.5 -1.5 l 3.3 -1.6 l 2 0.4 l 1.6 -0.4 l 1.6 -2.9 l 1.5 -1.1 l 1.5 0.4 l 2.1 -1.1 l 1.5 1.6 l 2 0.5 l 1.6 0.3 l 2.2 -1 l 2.5 -0.1 l 7.9 1.5 l 1 -0.9 l 0 -2.3 l -2.1 -2.5 l -1.2 -0.6 l 0.5 -1.7 l 1.9 -2.7 l 3.9 2.1 l 11.6 -2.3 l 1.6 1.7 l 1.5 -0.2 l 0 0 l 0.6 0.6 l 0.4 2.3 l -0.6 1.3 l -0.3 4.5 l 0.5 2 l 2.3 -0.3 l 4.7 0.9 l 1.9 1 l 1.2 2.1 l 1.2 0.1 l 1.9 1.8 l 2.2 0.1 l 1.3 -0.6 l 2.8 2.7 l 0.7 0 l 0.5 1.2 l -0.9 1 l 0.8 2.8 l 2 2.3 l 2.7 1.1 l -0.2 5.3 l 1.9 3.9 l -0.1 1.6 l 1.5 3.5 l 1.6 -0.2 l 2.9 3.3 l -0.1 2.4 l 0.4 0.9 l 1.3 0.7 l 0.2 3.6 l 1.9 1.4 l 0.4 1.5 l 1.5 1 l 2.8 0.7 l 3 -0.4 l 0 0 l -0.5 0.7 l 0.1 2.1 l -1.3 1.1 l -1.4 0.2 l -2 -1.1 l -3.8 2.1 l -3.8 1.3 l 0 0.6 l 6.5 -1.1 l 1 1.1 l -0.6 1.2 l 0.9 0.2 l 0.9 -1 l 3.2 -0.6 l 4.4 -2.9 l 3.3 -1.2 l 6.5 -4.4 l 0.7 -0.7 l 0 -1.1 l 2.2 -0.2 l 0.4 0.2 l 0.4 3.8 l -0.5 2.6 l 0.3 1.6 l 2.1 3 l 0.2 2.1 l -2.3 2 l -2.7 -1 l -2.2 -0.2 l -2.1 -1 l -0.3 -1.1 l -0.9 -0.5 l -2.3 3.8 l -0.6 2.4 l 1.2 3.6 l 0.9 0.6 l -1 -1.1 l -0.3 -3.2 l 2.6 -4.2 l 2.3 1.2 l 2.6 2.9 l -0.3 2 l -0.7 0.6 l 0.4 2.3 l 0.5 1.1 l 2.4 1.4 l -2.5 -2.6 l 0.3 -4.2 l 0.8 -1.2 l 1.4 0.7 l 0.8 1.2 l -0.1 0.8 l 1.2 0.9 l -1.7 -4.1 l 2.3 -2.3 l 3.5 0.7 l 0.3 0.6 l -0.6 0.6 l 0.8 0.3 l 6.4 -2 l 2.5 1.3 l 3.2 -0.4 l 3.1 -2 l 2.5 -0.4 l -2.2 6.3 l -1.3 2.1 l 0.6 2.3 l -0.3 2.5 l 0.9 -1.2 l 0 -1.4 l 2.7 -6.2 l 1.1 -1.6 l 3.4 -0.9 l 4.3 -5.8 l 0.8 0.5 l 0.6 -0.5 l 1.6 2.3 l 1.2 0.6 l -0.4 -1.5 l 0.6 -1 l -1 -0.4 l 0 -2.6 l 2.2 0.2 l 1.1 -3.1 l -0.7 -2.1 l 1.2 -1.8 l 2.8 -2.5 l 1.5 1.1 l 3.4 -2.2 l 0.5 1 l -0.3 0.7 l 1.1 -0.2 l 1.8 -1.6 l 2.4 2.7 l 0.1 -0.9 l -1.1 -0.8 l 0 -1.6 l 2.7 0.1 l 3.4 2.4 l 1.7 -0.8 l 0.5 2.1 l -0.5 0.9 l 0.9 -0.5 l 1.2 -2.4 l 0.6 2 l 2.5 -0.3 l 0.4 0.6 l 0.5 1.7 l -0.6 0.9 l 0.8 -0.5 l 2.2 0.5 l 3.5 -1.2 l -1 3.4 l 2.1 -1.1 l 0.6 1.6 l 0 0 l -1.2 1.5 l -0.5 5.8 l -0.6 0.7 l -1.1 0.1 l 0.2 1.1 l 1 -0.2 l 0.4 0.5 l -1 4.6 l -2.1 2.3 l -0.4 4 l -3.7 3.1 l 1 1.6 l -0.8 0.8 l -0.3 3.1 l -2.3 3.2 l -2 1.5 l -2.3 7.8 l -3.6 2.8 l -0.6 2.9 l -1.5 1.2 l -2 3.3 l -1.2 0.9 l -2.3 -0.2 l -14.7 11.8 l 0.5 0.1 l 0 0 l 2.3 0.8 l 3.2 -0.1 l 1 1.7 l 2.5 1.6 l -0.4 1.3 l -2 0.7 l 0.1 1.4 l 1 1.3 l -0.9 2.8 l -2.1 1 l -0.2 3 l -1.3 0.1 l -1.5 1.3 l -0.8 1.3 l -0.1 2 l -5.9 2.4 l -2.7 2.1 l 0.5 4.9 l -2.8 4.3 l 0.8 1.8 l 2.6 2.4 l -0.7 4 l -1.8 5.2 l -1.1 0.8 l -2.8 5.8 l -3.1 1.9 l -4.6 6.3 l -1.1 4.5 L 219.2 165.2 z M 240.3 34.9 l -4.5 2 l -3.4 0.5 l -2 -0.3 l -0.7 1.1 l -1.8 1.2 l -1.1 -0.6 l -1.1 1.2 l -3.8 -1.6 l -0.8 0.7 l -4.2 1.3 l -3.2 -0.6 l -0.8 -0.6 l -0.5 -2.3 l -2.2 -2.6 l -0.2 -1.8 l 0.5 -2.8 l 0.6 -0.4 l 1.8 0.4 l 0.9 -0.8 l 0.1 -0.6 l -2.5 0.3 l -0.9 -0.7 l -0.2 -1 l 0.3 -5.1 l 0.7 -0.8 l 0.3 0.8 l 0.6 -0.1 l -0.9 -2.2 l 1.3 -3.7 l 2.3 -1.9 l 2.7 -0.6 l 10.7 2.3 l 3.7 -0.5 l 1.3 -0.9 l 2.2 -0.4 l 12.2 2 l 0.6 0.5 l -0.1 1.2 l -1.4 2.2 l -1.2 5.9 l -1.3 0.7 l -0.1 1.9 l -2 2.6 L 240.3 34.9 z M 193.1 34.8 l -0.8 -0.5 l 1.1 -2.3 l -0.1 -1.8 l 2.6 -0.7 l 0.9 -0.9 l 0 -2.8 l 0.9 -2.6 l 3.6 -3 l 2.9 -0.2 l 0.7 2.4 l -2 5.2 l -3.2 3.4 l -4.9 3.3 L 193.1 34.8 z M 221.6 11.9 l -4.3 -0.3 l -0.7 -2.6 l 3.4 -0.4 l 2.2 -1.3 l 4.8 -0.6 l 1.5 0.9 l -0.2 1 l -2.6 1.4 l -1.8 2.5 L 222.9 13 L 221.6 11.9 z M 226.4 11.9 l 1.9 -1.2 l 2 0 l 1.6 0.6 l 0.6 1.6 l -0.9 0.8 l -4 0.6 l -2.3 -0.9 l -0.2 -0.5 L 226.4 11.9 z M 209.4 16.3 l -2.6 -0.9 l 0.8 -2.1 l 4.3 -1.3 l 1.3 0.1 l 0.8 0.7 L 209.4 16.3 z M 218.8 6.6 l -0.8 -0.3 l 0 -2.3 l 1.2 -1.3 l 2.7 -0.8 l 0.6 1.6 L 218.8 6.6 z M 205 26.8 l 1.1 -4.1 l 2.6 -1.7 l 1.4 -0.1 l -0.2 1.8 l -1.6 0.4 L 205 26.8 z M 215.9 9.2 l -1.5 -0.8 l 0.9 -1 l 0.7 -4 l 0.9 -1.2 l 0.9 4.8 L 215.9 9.2 z M 201.1 19.4 l -0.1 -0.8 l 2.5 -3.6 l 2.2 -1.2 l -0.6 2.5 L 201.1 19.4 z M 215 12.4 l -1.4 -0.9 l -1 -1.6 l 1 -1.2 l 2.1 1.3 l 0.2 2.1 L 215 12.4 z M 209.6 42.9 l -1.5 -0.6 l -0.7 0.5 l -0.8 -0.3 l -1.7 -1.7 l 0 -0.6 l 1.3 0 l 3.1 1.3 L 209.6 42.9 z M 188.4 37.4 l -0.2 -1.3 l 0.6 -1 l 2.4 -0.9 l 1.7 1.2 l -1.3 0.8 l -2.5 0.4 L 188.4 37.4 z M 201.1 30.7 l 0.4 -1.3 l 1.8 -1.6 l 0.7 -2.8 l 0.3 2 l -0.9 2.7 L 201.1 30.7 z M 207.4 20.8 l 1.6 -3 l 1.6 0 l 0.3 0.9 l -0.6 0.7 L 207.4 20.8 z M 205.4 20.3 l -0.5 -0.2 l 0.3 -2 l 1.6 -1.8 l 1.3 1.1 l -1.5 0.6 L 205.4 20.3 z M 207.6 25.3 l 0.7 0 l -1.3 0.8 l -0.1 1.1 l -2.5 1.6 l 0.6 -1.6 l 1.7 -1.7 L 207.6 25.3 z"/>
		<path id="BR-PB" title="Paraíba" class="land" d="M 458.6 129.2 L 456.1 127.1 L 452.6 126.6 L 450.3 127.7 L 448.8 129 L 448.3 130.8 L 446.4 131.8 L 443.3 132.2 L 442.5 133.4 L 436.4 133.4 L 434.3 134.9 L 432.5 135 L 431 136.5 L 431.4 137.7 L 431 138.2 L 429.2 139.7 L 426.3 140.7 L 423.7 139 L 423.4 136 L 422.3 135.7 L 420.3 136.2 L 423.1 132.7 L 422.3 130.8 L 422.7 129.6 L 425.8 128.2 L 425.3 126.8 L 421.8 124.9 L 418.1 126.6 L 417.2 128.1 L 414.6 129.2 L 410.4 132.8 L 406.1 134 L 405.4 133.6 L 404.8 131.7 L 402 132.7 L 401 132.4 L 399.2 130.4 L 399.2 130.4 L 401.8 125.5 L 401.5 124.3 L 399.5 123.3 L 399.6 121.7 L 398.4 120.3 L 398.5 119.3 L 400.4 117 L 399.9 115.7 L 401.9 111 L 401.9 111 L 402.4 110.5 L 404.4 112.2 L 408.1 113.2 L 413.4 109.7 L 413.9 107.7 L 422.4 105.4 L 422.9 105.9 L 422.9 107.1 L 419.9 110.3 L 419.1 113 L 417.6 113.9 L 417.6 115.6 L 421.1 116.2 L 422 118 L 425.2 116.7 L 428.9 117 L 429.8 118.1 L 429.2 119.7 L 430.1 120.4 L 432.4 119.5 L 432.9 118.7 L 433.5 117.5 L 432.8 115.2 L 433.3 114.6 L 434.3 114.9 L 433.1 112.6 L 433.4 111.1 L 435.2 109.8 L 436.6 109.7 L 437.5 111.6 L 441.5 112.3 L 447.3 111.9 L 451.9 113.3 L 457.4 112.9 L 457.4 112.9 L 457.5 115.3 L 459 119.7 L 458.4 122.6 L 459.5 120.4 L 459.5 122.4 L 460.1 123.4 L 459.9 128.5 L 459.5 129.1 z"/>
		<path id="BR-PE" title="Pernambuco" class="land" d="M 406.4 157.2 L 405.2 153.2 L 403.1 152.4 L 402.1 151.2 L 402.7 150.3 L 402.3 149.3 L 400.8 149.8 L 400.1 151.7 L 399.2 149.8 L 397.6 148.6 L 392.2 147.4 L 390.9 146.6 L 390.1 145.2 L 388.6 144.6 L 383.8 146.6 L 383 148.7 L 380.5 149.4 L 380.6 151.3 L 379.5 152.6 L 377.1 153.6 L 374.9 153.2 L 373.7 157.6 L 369 159.7 L 367.2 159 L 368.1 157.4 L 367.8 155.4 L 365.6 154.4 L 364.5 149.3 L 361.7 147.9 L 357.5 147.5 L 357.5 147.5 L 360.1 146.2 L 362.6 143.6 L 365.8 142 L 369.7 138.1 L 370.5 136.4 L 370.5 134.1 L 368.6 132 L 368.7 129.8 L 368 127.7 L 368.7 126.9 L 370.5 126.8 L 370.5 126.8 L 376.3 127.2 L 380 126.2 L 384.4 126.5 L 389.1 129.3 L 390.6 131.3 L 392.7 132.4 L 393.3 134 L 395 134 L 396.5 131.7 L 399.2 130.4 L 399.2 130.4 L 401 132.4 L 402 132.7 L 404.8 131.7 L 405.4 133.6 L 406.1 134 L 410.4 132.8 L 414.6 129.2 L 417.2 128.1 L 418.1 126.6 L 421.8 124.9 L 425.3 126.8 L 425.8 128.2 L 422.7 129.6 L 422.3 130.8 L 423.1 132.7 L 420.3 136.2 L 422.3 135.7 L 423.4 136 L 423.7 139 L 426.3 140.7 L 429.2 139.7 L 431 138.2 L 431.4 137.7 L 431 136.5 L 432.5 135 L 434.3 134.9 L 436.4 133.4 L 442.5 133.4 L 443.3 132.2 L 446.4 131.8 L 448.3 130.8 L 448.8 129 L 450.3 127.7 L 452.6 126.6 L 456.1 127.1 L 458.6 129.2 L 458.6 129.2 L 459.4 129.4 L 460 130.6 L 458.6 132.9 L 459.8 135.3 L 454.6 150.6 L 454.6 150.6 L 449.5 149.3 L 445.4 150.8 L 443.2 150 L 441.2 150.2 L 437.4 154.2 L 435.5 155.3 L 434.4 155.2 L 432.5 156.3 L 428.2 156.1 L 425.7 156.8 L 422 155.2 L 417.6 151.1 L 414.8 150.9 L 413.8 149.7 L 410.5 154.3 L 408.4 155 z"/>
		<path id="BR-PI" title="Piauí" class="land" d="M 353.8 56.9 L 358.1 57.3 L 359.4 58.8 L 359.4 58.8 L 356.6 63.4 L 356.4 64.8 L 362.1 79 L 363.5 80.6 L 362.7 82.7 L 363.5 86.6 L 363 88.2 L 364.6 93.2 L 364 94.8 L 363.2 95.3 L 364.2 96.4 L 364.9 105 L 366.8 112.8 L 367.8 115.5 L 371.6 116.6 L 372.4 117.7 L 369.8 123.8 L 370.5 125.4 L 370.5 126.8 L 370.5 126.8 L 368.7 126.9 L 368 127.7 L 368.7 129.8 L 368.6 132 L 370.5 134.1 L 370.5 136.4 L 369.7 138.1 L 365.8 142 L 362.6 143.6 L 360.1 146.2 L 357.5 147.5 L 357.5 147.5 L 355.5 150.9 L 354.5 151.6 L 351.7 151.8 L 351.8 154.2 L 349.9 156 L 349 155.3 L 346.8 155.3 L 345.2 156.6 L 342.5 157 L 340.2 159.5 L 334 160.4 L 333.2 160.1 L 333.1 159.2 L 331.4 158.2 L 330.1 157.8 L 326.5 158.8 L 325.8 157.7 L 324.3 157.2 L 322.4 157.2 L 319.1 158.9 L 319.1 159.8 L 321.3 164.3 L 321.1 168 L 317.2 174.8 L 314.2 177.2 L 312.9 177.6 L 310.1 176.9 L 307.9 177.7 L 306 179.4 L 304.9 179.8 L 303.8 181.5 L 301.7 181.3 L 299.9 181.8 L 295.7 180 L 294 177.5 L 292.8 174.2 L 291.3 172.9 L 289 172.9 L 289 172.9 L 286.1 172.7 L 286.1 172.7 L 286.4 169.7 L 287.5 167.3 L 287.6 160.9 L 288.4 159 L 286.7 155.9 L 285.5 150.8 L 286.3 148.8 L 288 147.4 L 289.6 142.6 L 291.4 139.6 L 293.4 131.4 L 295.5 129.4 L 301.9 128 L 303.6 126.5 L 306 125.9 L 308.9 123.3 L 311.2 122.4 L 316.2 116.9 L 320.9 116 L 324.4 118 L 325.9 117.9 L 328.4 117 L 332.1 117 L 333.3 115.7 L 334.5 109.5 L 330.9 106.1 L 330.3 101.7 L 330.5 99.2 L 334.8 94.2 L 334.3 88.8 L 332.8 86 L 334.2 81.6 L 333.8 80.4 L 332.6 79.5 L 332.2 77.6 L 336.3 72.6 L 337.2 70.7 L 337.2 68.9 L 340.1 65.5 L 344.2 65.2 L 350.1 59 L 350.5 57.5 L 349.7 56.2 L 350.1 54.8 L 350.1 54.8 z"/>
		<path id="BR-PR" title="Paraná" class="land" d="M 244.9 429.4 L 239.6 429.4 L 237.6 430.1 L 236.7 429.6 L 235.1 430.2 L 230.4 433.7 L 227.8 432.9 L 223.6 430 L 217.7 430.8 L 214.3 430.2 L 212.8 430.8 L 211.5 433.2 L 209.6 434.2 L 206 433.8 L 204 434.9 L 202.6 437.3 L 203.5 440.3 L 200.8 442 L 199.4 440.1 L 191.4 439.8 L 188.7 437.6 L 184.4 437.2 L 179.1 435.6 L 174.1 436.1 L 171.7 434.2 L 170.7 433.9 L 165.8 434.3 L 165.8 434.3 L 165.6 433.1 L 163.1 428.9 L 163.1 426.3 L 162.1 423.4 L 158.7 421 L 157.6 422.2 L 155.5 422.1 L 153.3 423.4 L 151.8 422.3 L 151 422.4 L 150.7 420.2 L 153.7 415.2 L 153.3 412.8 L 155.4 406.2 L 155.2 403.9 L 156.5 401.5 L 155.1 398 L 156.5 396.4 L 156.5 396.4 L 158.9 394.8 L 160.9 386.1 L 164.6 383.7 L 167 376.7 L 173.5 373.6 L 173.5 373.6 L 176.8 371.3 L 180.6 372 L 187.9 372.1 L 190.2 370.5 L 198 373.2 L 202.9 372.7 L 205.5 374.6 L 209 375.4 L 210.3 377.2 L 212.5 376.9 L 214.8 377.6 L 220.1 377.8 L 223.1 376.9 L 224.2 378.5 L 227.8 381.3 L 228.7 383.1 L 228.7 385.8 L 228.1 387.2 L 228.5 389 L 229.8 390.5 L 229.4 392.9 L 230.9 395.8 L 233.2 398 L 234.1 400.8 L 235 401.6 L 233.4 404.7 L 233.8 406.8 L 235.4 407.4 L 241.2 406.7 L 244.8 407 L 246.4 408.3 L 245.4 409.4 L 244.7 412.7 L 245.1 413.4 L 246.1 414 L 247.9 410.4 L 250.8 410.8 L 250.4 412.7 L 251.1 416 L 252.5 416.6 L 252.7 417.9 L 252.7 417.9 L 251.4 418.9 L 250.7 420.4 L 250.2 420.3 L 250.5 418.4 L 249.6 418.2 L 247.8 417.6 L 247 418.9 L 247.5 419.7 L 246.5 420.8 L 242.8 419.8 L 242.9 421.1 L 244.5 421.6 L 245.9 421.4 L 248.3 422.5 L 247.4 423.2 L 245.8 425.9 L 242.2 427.3 L 242 427.7 L 244.9 427.5 z"/>
		<path id="BR-RJ" title="Rio de Janeiro" class="land" d="M 316.5 380.3 l 0.3 -1 l 3.2 0.2 l 2.6 -0.6 l -3.9 -2.1 l -2.8 0.7 l -1.4 1.6 l -1.7 0.3 l -1.4 -2.2 l -0.5 0 l -1.9 1.5 l -3.1 0.8 l -0.5 2.8 l 2.2 0.1 l 1.1 1 l -1.1 1.1 l -2.4 0 l 0 0 l -2.1 -2 l 1 -3.9 l 1.1 -1.2 l 2.3 -1 l 3.3 -0.2 l 1.5 -0.7 l 1.7 -2.2 l -0.8 -1.6 l -4.8 0.5 l -1.8 -0.4 l -1.8 -2.8 l -1.3 -0.5 l 0 0 l 6 -2.6 l 3.1 0.1 l 6.9 -3.3 l 4.1 0.2 l 3.4 -1.2 l 2.5 0.3 l 0.5 0.6 l 1.4 -0.2 l 12 -5.5 l -0.1 -1.1 l -1.4 -0.1 l 0.1 -0.8 l 4.3 -9.8 l -0.7 -0.7 l 1.8 -0.8 l 2.5 -2.4 l 0 0 l 1.9 0.8 l 0.7 4.7 l 6.8 2.1 l 3 -0.4 l 1.6 1.1 l 0 0 l -1.2 5 l 1.1 6.8 l -3.6 2.4 l -6 1.9 l -2.8 1.7 l -3.5 3.7 l 0 4.5 l -0.7 1.5 l -1.8 0.5 l -6.5 -0.2 l -5.8 0.7 l -2.4 -0.5 l -0.5 -1.1 l 1.7 -2.9 l -0.1 -0.6 l -0.8 -0.2 l -2.8 1.2 l -0.3 0.7 l 1.7 2 l 0.3 1 l -0.6 0.5 L 316.5 380.3 z M 311.4 382.3 l -0.7 -1 l 2.1 -1.5 l 2.3 1.6 l -2.5 0.5 l -0.9 -0.3 L 311.4 382.3 z"/>
		<path id="BR-RN" title="Rio Grande do Norte" class="land" d="M 457.4 112.9 L 451.9 113.3 L 447.3 111.9 L 441.5 112.3 L 437.5 111.6 L 436.6 109.7 L 435.2 109.8 L 433.4 111.1 L 433.1 112.6 L 434.3 114.9 L 433.3 114.6 L 432.8 115.2 L 433.5 117.5 L 432.9 118.7 L 432.4 119.5 L 430.1 120.4 L 429.2 119.7 L 429.8 118.1 L 428.9 117 L 425.2 116.7 L 422 118 L 421.1 116.2 L 417.6 115.6 L 417.6 113.9 L 419.1 113 L 419.9 110.3 L 422.9 107.1 L 422.9 105.9 L 422.4 105.4 L 413.9 107.7 L 413.4 109.7 L 408.1 113.2 L 404.4 112.2 L 402.4 110.5 L 401.9 111 L 401.9 111 L 400.6 111.2 L 400.9 109.2 L 403.2 106.1 L 405.5 106.3 L 407.5 103.7 L 408.9 101.2 L 409.4 98.8 L 411.1 97.1 L 414.4 90.5 L 417 88.4 L 421.9 86.9 L 421.9 86.9 L 423.2 88.4 L 427.6 88.8 L 429.3 90.5 L 430.6 91 L 433.9 90.7 L 436.8 91.2 L 441.7 90.2 L 447.5 91.2 L 449.4 92.1 L 451.1 93.8 L 453.4 98.6 L 455.5 108.2 L 456.2 108.7 z"/>
		<path id="BR-RO" title="Rondônia" class="land" d="M 35.4 221 L 34.2 219.5 L 33.7 217.6 L 32.2 217.1 L 29.5 217.5 L 25.4 215.7 L 24.7 214.7 L 23.5 215.3 L 20 212.6 L 18.8 209.8 L 17.8 209.4 L 16 210.5 L 14.8 210.5 L 13.4 209.7 L 12.5 208.3 L 9.4 206.8 L 7.4 206.6 L 5.4 208 L -1.5 206.7 L -3.5 205.1 L -3.8 203.1 L -7.3 201.7 L -8.4 199.8 L -11.5 199.1 L -12.3 195.4 L -13.2 194.5 L -13.7 195.7 L -14.3 195.4 L -14.6 194.7 L -14 193.2 L -14.8 191.7 L -16.2 191.3 L -17.4 187.8 L -17.6 186.2 L -16.1 183.2 L -16.3 181.6 L -18.2 177.5 L -18.2 175.2 L -16.2 172.2 L -15.8 170.8 L -16.6 166.9 L -16 165.2 L -17.2 163 L -18.2 162.7 L -20.2 165.1 L -23 164.1 L -28.2 164.2 L -36.9 166.4 L -36.9 166.4 L -39.9 165.2 L -39.9 165.2 L -36.6 162.6 L -34.7 162 L -33.2 160.2 L -33.2 158.4 L -26.4 158.3 L -23 161 L -21.7 160.2 L -21.2 158.9 L -18 158.2 L -14.8 155.9 L -13.8 158.3 L -12.5 158.7 L -9.9 155.6 L -10.2 153.8 L -9.6 153 L -7.9 151.7 L -4.8 152.4 L -3.6 151.3 L -1.5 150.9 L 2.4 151.4 L 2.3 148.1 L 4.3 146.9 L 5.5 144.8 L 4.4 143.6 L 4.5 142.9 L 5.7 141.3 L 8.4 140.6 L 8.3 139.4 L 10 138.9 L 11.4 136.4 L 22.2 136.3 L 24.4 137.4 L 25.6 139.8 L 26.9 141.1 L 29.5 142.1 L 30.7 145.4 L 32.8 145.6 L 33.5 148.5 L 36.7 150 L 37.4 149.8 L 37.9 148.1 L 39.8 147 L 41.2 147.3 L 41.6 148.3 L 41.6 148.3 L 43 149.3 L 43.6 150.6 L 41.5 157 L 42.6 158.4 L 43.6 162.1 L 42.6 163.7 L 43 165.7 L 42 170 L 42.3 171.7 L 43.8 174.5 L 42.9 183.5 L 60 183.5 L 59.8 184.1 L 61 185.2 L 64.5 185.1 L 66.7 185.7 L 68.1 189.2 L 66.5 191.7 L 65.2 192.8 L 65 194.1 L 65.5 197.4 L 66.9 197.9 L 68.5 201.2 L 69 204.8 L 68.4 208.7 L 66.7 210.7 L 65.6 213.8 L 63.5 214.7 L 62.6 215.8 L 60.7 222.1 L 55.1 226.1 L 55.1 226.1 L 51.8 224.5 L 50.5 223 L 43.4 224 L 41.8 223.3 L 38.5 223.9 L 37.5 222.4 z"/>
		<path id="BR-RR" title="Roraima" class="land" d="M 82.7 -8.6 L 84.3 8.4 L 84.3 8.4 L 65.8 8.3 L 65.9 9 L 61.9 15.3 L 60.7 19 L 60.8 20.4 L 61.9 21.8 L 61.5 22.8 L 59.5 23.3 L 56.8 25.2 L 55 25 L 54.1 22.4 L 52.2 20.4 L 49.4 19.5 L 47.8 19.5 L 47.2 20.4 L 43.8 21.8 L 42.8 23.1 L 42 26.1 L 42.1 29.6 L 41.4 31.9 L 41.8 34 L 39.4 32.9 L 37.6 33.3 L 35.1 29.6 L 32.6 28.3 L 27.6 23.8 L 27.7 22.7 L 29.5 23 L 30.7 21.1 L 29.6 16.8 L 27.8 15.1 L 26.9 12.9 L 26.6 7.9 L 28 3.9 L 27 0.7 L 28.6 -0.7 L 27.7 -2.3 L 27.5 -4.6 L 25.8 -9.3 L 23.1 -13.1 L 24.7 -17.9 L 22.3 -19.5 L 19.1 -19.8 L 17.8 -20.9 L 17.8 -21.9 L 15.4 -21.6 L 13.9 -22.7 L 13.9 -22.7 L 14.2 -25.7 L 7.1 -25.8 L 3.7 -26.5 L 4.5 -30.3 L 1.1 -37.7 L 0.6 -41.4 L 1.4 -42.9 L 1.3 -43.8 L -5.5 -49.7 L -6.9 -52.4 L -8.2 -53.5 L -7.9 -54.6 L -5.9 -53.9 L -5 -52.2 L -1 -52.6 L 2.3 -51.9 L 4 -48.4 L 6.6 -49.6 L 9.8 -49.4 L 12.2 -48 L 12.7 -48.1 L 13.3 -49.7 L 14.6 -49.5 L 16.1 -48.6 L 20 -44 L 21.8 -43.4 L 23.3 -44 L 24 -45.2 L 23.3 -48.8 L 23.7 -50.5 L 26.1 -50.8 L 28.6 -53 L 33.3 -51.6 L 35.7 -52.8 L 37.8 -52.7 L 39.2 -54 L 42.4 -54.1 L 43.1 -54.9 L 43.2 -56.3 L 46.2 -58.1 L 51.3 -58.3 L 52.9 -61.2 L 55.5 -62.3 L 57.7 -65 L 56.5 -68.6 L 55.3 -68.9 L 61.7 -68.8 L 63.5 -70 L 64.9 -69.6 L 67 -66.1 L 66.3 -61.2 L 65.6 -59.8 L 64.3 -59.1 L 64.4 -58.3 L 67.6 -58.1 L 71.8 -56.2 L 70.9 -54.8 L 70.9 -53.6 L 73.2 -50.2 L 73.4 -48.6 L 71.9 -45.7 L 70 -44.3 L 69.3 -42.8 L 69.7 -40.3 L 68.2 -37.8 L 67 -32.5 L 66.9 -29.8 L 67.9 -28 L 68.4 -24.8 L 70.8 -23.6 L 70.6 -17 L 72.4 -16.7 L 71.8 -15.5 L 74.4 -14.3 L 78.5 -9.6 z"/>
		<path id="BR-RS" title="Rio Grande do Sul" class="land" d="M 170.1 568.5 L 167.6 567 L 168.1 562.7 L 167.8 557.4 L 174.4 549.6 L 173 548 L 169.6 546.8 L 167.3 544.5 L 166.1 542.9 L 165.6 540.1 L 162.3 535.9 L 159.2 534 L 157.8 534.3 L 155.9 532.8 L 153.1 530.3 L 153 528.6 L 151.1 526.5 L 147.8 526 L 145.1 523.9 L 143.3 524 L 141.2 522.6 L 138.2 517.4 L 135.6 515.3 L 134.9 515.4 L 134.3 517.2 L 131.7 519.4 L 129 519.5 L 129.5 515.4 L 129.1 514.4 L 125.5 510.1 L 116.5 502 L 112.4 502 L 110.2 505.3 L 105.3 505 L 104 503.4 L 105.9 502.5 L 108.4 499.7 L 109.2 496.6 L 111.9 495.8 L 112.8 494.8 L 118.3 488.3 L 119.9 484.7 L 122.5 483.5 L 124.5 478.7 L 128.1 475.6 L 130.8 471.1 L 133.3 471 L 133.9 471.8 L 134.3 470.5 L 132.8 469.1 L 133.1 468.4 L 135 467 L 137.8 466.1 L 139.7 463.2 L 141.9 462 L 144.4 461.7 L 146.2 459.8 L 147.6 456.4 L 148.3 456.9 L 149.6 456.8 L 154.8 455.1 L 156 454.5 L 158.1 452.1 L 159.2 451.8 L 160.3 450.4 L 162.6 449.7 L 162.9 450.1 L 162.9 450.1 L 166.4 450.4 L 169.6 449.3 L 170.2 448.5 L 171.6 449.1 L 171.4 450 L 174.5 450 L 176.1 450.9 L 178.7 450.6 L 180.6 451.7 L 187.5 451.3 L 192.3 453.7 L 193.3 456.1 L 194.8 456.3 L 194.9 455.8 L 196.7 455.5 L 202.3 459 L 203.7 460.5 L 205.9 461.5 L 213.3 471.3 L 221.1 472.9 L 223.2 472.5 L 226.6 472.9 L 227.5 475.2 L 224.1 477.2 L 223.4 479.1 L 223.2 482.8 L 222.7 484.1 L 221.5 484.3 L 220.2 486 L 220.2 487.4 L 222 488.6 L 222 486.5 L 223.5 485.6 L 227.4 488 L 227.4 488 L 222.1 496.8 L 217.9 508.4 L 211.6 518.9 L 206.2 525.5 L 199.7 531.5 L 193.6 535.2 L 190.5 539.5 L 191.3 535.3 L 190.2 533.2 L 191.1 533 L 193.7 534 L 197.1 531.9 L 200.7 527.5 L 202.2 527.5 L 203.2 526.7 L 204.5 523.9 L 204.7 519.5 L 206.3 519.5 L 207.3 520.6 L 207.6 520.3 L 207.3 518.9 L 207.8 516.9 L 211.1 514.7 L 211.8 513.6 L 212.1 508.6 L 212.6 507.9 L 213.1 508.7 L 213.9 508.3 L 214.4 505.2 L 213.3 503.6 L 212.7 503.5 L 212.1 505.4 L 208.6 505.8 L 208.2 507.4 L 207.7 507.4 L 206.9 507 L 207 505.3 L 206.2 504.4 L 205.1 504.7 L 204.5 504.2 L 202.9 500.3 L 202.3 503 L 202.7 505.2 L 204 507.3 L 202.6 510.7 L 202.8 514.5 L 201.7 511.5 L 199.7 516.8 L 199.9 519.2 L 197.5 520.5 L 196.9 522.1 L 192.1 524.2 L 191.5 528.1 L 190.5 530.4 L 188.2 531.7 L 188.1 533.4 L 188.8 535.3 L 187.8 535.8 L 187.6 537.3 L 188 537.9 L 190 538.4 L 190.1 539.3 L 188 541 L 185.7 545.5 L 183.8 552.4 L 181.8 556.9 L 180.1 559.4 z"/>
		<path id="BR-SC" title="Santa Catarina" class="land" d="M 227.4 488 l -3.9 -2.4 l -1.5 0.8 l 0 2.1 l -1.8 -1.2 l 0 -1.4 l 1.3 -1.7 l 1.2 -0.2 l 0.5 -1.3 l 0.1 -3.8 l 0.7 -1.9 l 3.3 -2 l -0.9 -2.3 l -3.3 -0.3 l -2.1 0.4 l -7.9 -1.6 l -7.3 -9.8 l -2.3 -1 l -1.4 -1.5 l -5.6 -3.5 l -1.8 0.3 l -0.1 0.5 l -1.6 -0.2 l -1 -2.4 l -4.7 -2.3 l -6.9 0.4 l -1.9 -1.2 l -2.6 0.4 l -1.6 -1 l -3.1 0 l 0.1 -0.9 l -1.4 -0.6 l -0.6 0.8 l -3.3 1.2 l -3.5 -0.4 l 0 0 l 2.2 -5 l -0.6 -3.3 l 0.4 -5.8 l 1 -1.8 l 0 0 l 4.9 -0.3 l 1.1 0.2 l 2.3 1.9 l 5 -0.5 l 5.3 1.7 l 4.3 0.4 l 2.8 2.2 l 8 0.3 l 1.3 1.9 l 2.7 -1.8 l -0.8 -3 l 1.4 -2.4 l 2 -1.1 l 3.6 0.4 l 1.9 -1 l 1.3 -2.3 l 1.5 -0.7 l 3.3 0.7 l 5.9 -0.9 l 4.2 3 l 2.7 0.8 l 4.7 -3.6 l 1.6 -0.6 l 0.9 0.5 l 2.1 -0.7 l 5.2 0 l 0 0 l -0.4 1.3 l 0.4 2 l -1.5 1.1 l -1 -0.5 l -0.3 1.3 l 2.3 2.6 l -1 2.3 l -0.2 2.3 l 0.9 1.2 l 0.3 5.9 l 0.8 0.8 l 0.8 -0.5 l 0.5 1.6 l -0.9 -0.2 l -1.2 0.6 l -0.3 3.8 l 0.6 2.6 l -0.6 0.8 l 1.2 3.8 l -1.4 6.3 l -1.7 4.7 l -0.7 -0.9 l 0.2 -1 l -0.9 -1.2 l -0.3 0.3 l 0.2 2.4 l 1.2 0.8 l -0.9 1.7 l -1.6 0.6 l -6.9 5.6 L 227.4 488 z M 245.3 461.5 l 0.9 -4.6 l -0.3 -2.2 l 1.6 -0.7 l 0.7 0.9 l -0.5 2.6 l -1.4 2.1 l 0.2 1.2 L 245.3 461.5 z M 244.9 437.1 l -1.9 -2 l 2.8 -2.4 l 0.6 1 L 244.9 437.1 z"/>
		<path id="BR-SE" title="Sergipe" class="land" d="M 418.1 191.7 L 415.2 192.6 L 410.7 190 L 410 189 L 410.3 186.8 L 406.3 181.6 L 407.2 178.9 L 408.9 178.9 L 410 179.7 L 412.5 178.7 L 413.5 177.6 L 412.8 174.8 L 413.5 172.3 L 413.6 169.2 L 410.9 166.1 L 409.6 163.6 L 409.4 161.5 L 410 160.3 L 410 160.3 L 416.5 163.3 L 420.2 164.2 L 425.6 167.3 L 426.9 169.8 L 434.4 174.3 L 435 175.6 L 435 175.6 L 432.6 176.3 L 428 179.3 L 425.5 182.4 L 424.2 179.4 L 423.2 179.6 L 423.6 180.7 L 424.6 181.2 L 424.5 183 L 423.3 185 L 422.4 184 L 421.4 183.9 L 422.7 185.2 L 422.4 186.9 L 420.7 190.1 L 419.9 190.3 L 420.1 188.4 L 421.1 186.8 L 420.3 186.4 L 419.2 189.8 L 419.5 190.6 z"/>
		<path id="BR-SP" title="São Paulo" class="land" d="M 252.7 417.9 l -0.2 -1.3 l -1.4 -0.6 l -0.7 -3.3 l 0.4 -2 l -2.9 -0.4 l -1.8 3.6 l -1.1 -0.5 l -0.3 -0.8 l 0.7 -3.3 l 1 -1.1 l -1.6 -1.3 l -3.7 -0.3 l -5.8 0.6 l -1.6 -0.6 l -0.3 -2 l 1.5 -3.2 l -0.9 -0.7 l -0.9 -2.8 l -2.4 -2.1 l -1.5 -3 l 0.4 -2.3 l -1.3 -1.5 l -0.4 -1.8 l 0.6 -1.4 l 0 -2.7 l -0.9 -1.8 l -3.6 -2.8 l -1.1 -1.6 l -3 0.9 l -5.3 -0.1 l -2.3 -0.7 l -2.1 0.3 l -1.3 -1.8 l -3.5 -0.8 l -2.5 -1.8 l -5 0.4 l -7.8 -2.6 l -2.3 1.6 l -7.3 -0.2 l -3.8 -0.7 l -3.3 2.3 l 0 0 l 2.8 -3.8 l 7.6 -4.5 l 2 -1.9 l 3.4 -5.3 l 1.4 -1 l -0.1 -2.1 l 3.2 -4.6 l -0.2 -2.9 l 3.8 -4.5 l 0.8 -4.6 l 1.7 -0.9 l 3.2 -3.7 l 3.3 -1 l 0.7 -2.9 l 0 0 l 3.4 -2.2 l 1.9 -0.4 l 1.4 -1.7 l 1.5 -0.6 l 2.5 1.7 l 6.8 1 l 5.3 -0.7 l 3.8 2.2 l 0.2 2.3 l 1.2 2.1 l 1.2 -0.3 l 1.1 -2.1 l 0.8 -0.1 l 0.6 1.3 l 0 2.8 l 1.2 0.5 l 0.4 -0.5 l -0.3 -2.5 l 0.9 -1.7 l 8.2 -0.7 l 1 -1.3 l 2.6 1.9 l 2.8 -0.7 l 0.5 -2 l 2.4 -0.1 l 1.7 0.8 l 2.1 -0.9 l 3.3 3.3 l 0.2 1 l -0.9 3.4 l 2.5 1.8 l 0.4 1.6 l -1.6 2.6 l -0.2 1.9 l 1.1 1.4 l 0.4 2.2 l 1.3 1.8 l 0.8 2.8 l 3.7 -0.8 l 3.9 1.7 l -0.8 3.5 l -1.9 2.7 l 0.1 6.4 l -0.5 1.6 l 0.7 1.6 l 3.6 2.1 l 0.5 1.7 l -1.2 0.7 l 2 3.3 l 3.1 0 l 0.2 0.5 l 3.6 -1 l 0.6 0.4 l 1.3 -0.3 l 0.8 -1 l 0 -3.4 l 1.2 -0.3 l -0.3 1.3 l 4.7 -0.2 l 4.9 -2.9 l 2.2 -0.2 l 1.2 -0.7 l 0 0 l 1.3 0.5 l 1.8 2.8 l 1.8 0.4 l 4.8 -0.5 l 0.8 1.6 l -1.7 2.1 l -1.5 0.7 l -3.3 0.2 l -2.3 1 l -1.1 1.2 l -1 3.9 l 2.1 2 l 0 0 l -1.8 0.6 l -1.1 -0.8 l -2.4 2.6 l -5.5 2.3 l -0.1 3.4 l -1.4 0.3 l -2 -0.9 l -4 -0.4 l -3.1 1.2 l -1.7 2.6 l -1.3 0.6 l -0.5 -0.1 l 0.6 -0.5 l -0.5 -1.2 l -1.2 -0.9 l -0.8 1.2 l 0 1.4 l -7.6 4.2 l -1 0.8 l -0.3 1.2 l -3.3 3 l -3.3 1.9 l -1.9 0.5 l -7.5 5.2 l -0.4 0.6 l 1.6 0.5 l 0.9 -0.4 l 0 0.8 L 252.7 417.9 z M 297 394.9 l -3.2 -0.8 l 2.1 -3.3 l 1.4 0.9 l 0.1 2.9 L 297 394.9 z"/>
		<path id="BR-TO" title="Tocantins" class="land" d="M 281.5 211.8 L 276.1 213.2 L 271.8 215.7 L 265.7 216.7 L 261.4 219.7 L 259.5 216.8 L 258.9 216.8 L 258.4 220.1 L 257.7 220.2 L 254.4 219.5 L 251.2 218 L 251.6 215.7 L 247 216.2 L 244.3 215.9 L 242.7 218.2 L 241.5 218.1 L 239.8 211.3 L 237.6 208.1 L 235 211.5 L 233.3 217.4 L 232.7 217.7 L 225.6 214.5 L 221.6 214.1 L 217 212.7 L 217.5 210.4 L 218.8 208.5 L 218.8 206.8 L 216.4 209.2 L 215.2 212.7 L 215.2 212.7 L 213.5 212.2 L 212.5 208.8 L 213.2 206.1 L 212.8 203 L 212.3 202.5 L 212.7 197.6 L 211.6 195.3 L 212.7 193.1 L 211.3 191.7 L 211.2 190.9 L 213.1 184.9 L 213.7 179 L 216.4 172.5 L 216.8 169.4 L 217.9 168.2 L 219.2 165.2 L 219.2 165.2 L 220.8 161.6 L 221.9 157.1 L 226.5 150.8 L 229.6 148.9 L 232.5 143.1 L 233.5 142.3 L 235.3 137.2 L 236 133.1 L 233.4 130.8 L 232.6 128.9 L 235.5 124.6 L 235 119.7 L 237.7 117.6 L 243.6 115.3 L 243.7 113.2 L 244.5 112 L 246 110.6 L 247.3 110.5 L 247.5 107.5 L 249.6 106.5 L 250.5 103.8 L 249.5 102.5 L 249.4 101.1 L 251.4 100.3 L 251.8 99 L 249.2 97.4 L 248.2 95.7 L 245.1 95.9 L 242.8 95.1 L 242.8 95.1 L 245.9 92.6 L 248.8 92.1 L 251.5 93.6 L 255.6 93.5 L 256.6 95.5 L 261.2 97 L 262 98 L 263.1 103 L 262.9 106.7 L 263.8 109.4 L 262.1 115.5 L 261.8 120.5 L 260 122.5 L 258.3 123.2 L 258.1 123.9 L 260 125.2 L 261.8 125.2 L 262.2 126.4 L 261.6 127.6 L 262.4 129 L 263.3 129 L 269.5 137 L 271.6 135.7 L 275.9 134.7 L 277.7 135.9 L 277.1 140.9 L 277.5 142.3 L 274.1 142.6 L 272.2 143.7 L 270.8 147.8 L 271.2 149.1 L 268.3 152.4 L 271.5 153.8 L 272.9 158.1 L 276.8 160 L 276.9 160.6 L 275.3 162.4 L 275.4 164 L 277.5 165.6 L 278.5 168.5 L 279.9 170.5 L 283.3 170.8 L 286.1 172.7 L 286.1 172.7 L 289 172.9 L 289 172.9 L 287.5 175 L 283.7 177 L 280.5 179.7 L 281.6 181.8 L 279.3 183.1 L 277.8 186.6 L 276.3 188.5 L 276.5 189.4 L 278.4 191.3 L 282 192 L 283.8 193 L 283.9 193.8 L 281.3 195 L 280.9 196 L 281.3 196.8 L 283.3 196.9 L 284.1 198.1 L 280.1 200.9 L 280.2 205.9 L 282.6 207 L 282.8 208.5 L 281.4 210.9 z"/>
	</g>
    <linearGradient id="7v2uy36n"/>
    <linearGradient id="czj9qtrp"/>
</svg>