<?xml version="1.0" encoding="utf-8"?>
<!-- (c) ammap.com | SVG map of Brazil - Low -->
<svg xmlns="http://www.w3.org/2000/svg" xmlns:amcharts="http://amcharts.com/ammap" xmlns:xlink="http://www.w3.org/1999/xlink" version="1.1">
	<defs>
		<style type="text/css">
			.land
			{
				fill: #CCCCCC;
				fill-opacity: 1;
				stroke:white;
				stroke-opacity: 1;
				stroke-width:0.5;
			}
		</style>

		<amcharts:ammap projection="mercator" leftLongitude="-74.008595" topLatitude="5.275696" rightLongitude="-34.789914" bottomLatitude="-33.744725"></amcharts:ammap>

		<!-- All areas are listed in the line below. You can use this list in your script. -->
		<!--{id:"BR-AC"},{id:"BR-AL"},{id:"BR-AM"},{id:"BR-AP"},{id:"BR-BA"},{id:"BR-CE"},{id:"BR-DF"},{id:"BR-ES"},{id:"BR-GO"},{id:"BR-MA"},{id:"BR-MG"},{id:"BR-MS"},{id:"BR-MT"},{id:"BR-PA"},{id:"BR-PB"},{id:"BR-PE"},{id:"BR-PI"},{id:"BR-PR"},{id:"BR-RJ"},{id:"BR-RN"},{id:"BR-RO"},{id:"BR-RR"},{id:"BR-RS"},{id:"BR-SC"},{id:"BR-SE"},{id:"BR-SP"},{id:"BR-TO"}-->

	</defs>
	<g>
		<path id="BR-AL" title="Alagoas" class="land" d="M561.91,230.3L561.71,229.57L558.82,228.59L558.28,227.19L558.28,227.19L560.24,225.03L562.41,224.27L565.7,219.69L566.7,220.91L569.45,221.09L573.9,225.23L577.59,226.76L580.09,226.11L584.4,226.29L586.26,225.23L587.42,225.28L589.23,224.17L593.08,220.19L595.08,219.95L597.32,220.8L601.35,219.32L606.44,220.61L606.44,220.61L603.66,225.57L595.53,234.28L592.49,238.86L589.16,241.74L586.84,245.56L586.84,245.56L586.24,244.25L578.77,239.75L577.47,237.3L572.05,234.23L568.37,233.28z"/>
		<path id="BR-BA" title="Bahia" class="land" d="M527.5,365.33l-0.36,-0.83l0.67,-1.89l-0.53,-1.04l-4.13,-3.05l0.06,-2.02l-0.57,-1.23l-1.41,0.63l1.35,-7.7l0.82,-0.88l2.47,0.24l1.02,-0.71l-0.56,-1.43l0.16,-2.65l4.96,-4.22l1.47,-3.08l-1.19,-2.19l-1.62,-0.44l-2.83,-2.47l-2.12,0.02l-4.45,-1.68l-4.71,-0.71l-2.79,1.48l-3.18,-0.24l-0.44,-3.96l-6.52,-6.2l-4.77,1.06l-1.53,-1.24l-1.44,-0.01l-2.54,-1.22l-2.17,-1.62l-0.98,0.18l-4.35,-3.63l-3.83,-1.29l-3.65,1.15l-1.44,1.29l-5.33,-1.47l-0.61,-0.49l-0.26,-1.5l1.44,-3.63l-3.13,-0.98l-5.18,-0.62l-3.83,1.58l-4.26,3.03l-0.64,1.11l-3.37,1.87l-2.02,0.4l-2.76,2.73l-2.43,0.37l-2.89,3.35l-2.85,-0.25l-2.03,1.91l-0.4,-0.24l1.43,-3.43l-0.51,-2.41l0,0l1.73,-2.74l-0.9,-2.99l0.76,-2.56l-3.21,-2.62l-1.69,-3.46l-0.62,-3.52l1.24,-5.38l1.82,-1.42l0.06,-0.94l-1.74,-1.17l0.48,-2.52l1.41,-1.43l-2.72,-2.46l0,0l-0.04,-0.93l1.36,-2.38l-0.21,-1.49l-2.41,-1.14l-0.11,-5.02l4.06,-2.81l-0.87,-1.15l-1.95,-0.11l-0.44,-0.83l0.42,-0.96l2.6,-1.26l-0.04,-0.76l-1.88,-0.98l-3.58,-0.67l-1.86,-1.96l-0.23,-0.92l1.51,-1.88l1.52,-3.48l2.27,-1.27l-1.1,-2.17l3.21,-2.62l3.82,-2.02l1.47,-2.11l0,0l2.33,-0.02l1.44,1.34l1.19,3.25l1.76,2.49l4.18,1.86l1.8,-0.52l2.11,0.18l1.08,-1.66l1.14,-0.37l1.84,-1.76l2.21,-0.75l2.81,0.7l1.35,-0.42l2.97,-2.42l3.92,-6.82l0.17,-3.72l-2.24,-4.43l0.05,-0.93l3.24,-1.65l1.95,-0.02l1.5,0.46l0.73,1.11l3.51,-0.98l1.33,0.38l1.71,0.99l0.06,0.94l0.82,0.28l6.18,-0.86l2.33,-2.56l2.73,-0.34l1.59,-1.34l2.17,0.01l0.94,0.68l1.86,-1.81l-0.1,-2.4l2.78,-0.21l1.05,-0.66l1.96,-3.46l0,0l4.25,0.42l2.82,1.39l1.09,5.18l2.21,0.91l0.27,2l-0.92,1.68l1.83,0.62l4.65,-2.02l1.27,-4.45l2.17,0.42l2.39,-1.02l1.1,-1.24l-0.08,-1.95l2.53,-0.7l0.77,-2.05l4.77,-2l1.49,0.56l0.83,1.44l1.36,0.81l5.35,1.17l1.58,1.15l0.93,1.92l0.71,-1.89l1.44,-0.45l0.47,0.95l-0.62,0.88l0.96,1.2l2.1,0.86l1.24,3.99l0,0l0.54,1.4l2.89,0.98l0.2,0.72l0,0l-0.67,1.16l0.21,2.14l1.28,2.5l2.74,3.1l-0.08,3.12l-0.74,2.5l0.76,2.75l-0.99,1.13l-2.55,1l-1.13,-0.75l-1.71,-0.01l-0.89,2.65l4,5.27l-0.32,2.2l0.72,0.94l4.5,2.61l2.89,-0.88l0,0l1.01,0.4l-4.08,8.83l-3.83,5.19l-1.03,2.33l-5.03,5.74l-3.32,1.25l0.81,-2.68l-0.45,-1.93l-1.87,-0.25l-1.11,-2.06l-1.33,3.79l-1.11,0.09l-0.49,-1.74l-0.49,0.44l0.93,1.69l1.99,0.34l-0.46,1.81l-1.21,1.15l-0.25,1.82l-1.6,1.64l-0.02,1.69l-1.35,-0.39l-0.21,0.39l0,1.8l0.75,0.21l0.71,2.87l-1.04,2.51l0.57,3.44l-1.13,0.27l-0.14,1.13l0.59,0.46l1.21,-1.72l-0.47,-2.21l0.82,-0.61l0.25,0.54l-2.28,11.61l2.05,16.26l0.99,3.42l-2.21,6.66l-3.05,14.24l0.3,6.75l0.89,1.71l-2.24,2.98l-2.75,1.31l-2.72,3.89L535.9,371l0,0L527.5,365.33z"/>
		<path id="BR-CE" title="Ceará" class="land" d="M573.79,156.85L568.9,158.44L566.29,160.45L562.99,167.14L561.28,168.83L560.78,171.24L559.38,173.68L557.35,176.29L555.03,176.11L552.78,179.24L552.44,181.21L553.74,181L553.74,181L551.79,185.69L552.31,187L550.39,189.32L550.27,190.25L551.44,191.67L551.42,193.33L553.35,194.3L553.69,195.49L551.06,200.35L551.06,200.35L548.4,201.67L546.86,203.96L545.21,204.01L544.58,202.37L542.44,201.32L540.97,199.26L536.29,196.53L531.92,196.21L528.15,197.2L522.33,196.76L522.33,196.76L522.39,195.44L521.63,193.79L524.28,187.74L523.51,186.58L519.64,185.46L518.63,182.79L516.82,175.02L516.12,166.41L515.09,165.34L515.89,164.76L516.48,163.18L514.88,158.18L515.36,156.58L514.57,152.71L515.33,150.59L513.97,149L508.29,134.84L508.47,133.38L511.25,128.76L511.25,128.76L511,127.34L511.65,126.53L518.39,126.31L523.35,125.22L530.75,126.01L545.21,134.33L546.42,134.53L551.63,138.93L554.2,139.65L556.64,142.56L557.86,143.17L560.82,146.98L564.98,150.06L567.48,153.05L572.5,154.82z"/>
		<path id="BR-MA" title="Maranhão" class="land" d="M458.57,128.92l-2.5,2.65l-0.04,1.44l5.67,-5.64l1.03,-6.33l4.58,-1.88l0.46,0.12l-0.13,2.08l-1.42,1.87l-3.21,1.75l-0.03,0.72l0.73,0.12l0.45,-0.81l1.15,-0.31l-0.12,1.64l4.21,-4.97l0.86,0.33l2.58,-0.93l4.04,0.43l-0.46,-2.41l0.61,-0.23l2.42,0.08l5.45,1.53l2.15,1.38l1.4,0.03l3.16,2.62l3.66,0.39l0.56,0.76l4.4,0.61l0.26,-0.9l-0.67,-0.47l1.67,-0.38l0.57,0.11l-0.09,0.42l0,0l-0.46,1.43l0.86,1.26l-0.38,1.53l-5.92,6.24l-4.12,0.3l-2.92,3.4l0.04,1.8l-0.88,1.83l-4.12,5.05l0.36,1.92l1.23,0.83l0.38,1.28l-1.42,4.34l1.58,2.81l0.45,5.41l-4.31,4.97l-0.17,2.48l0.63,4.41l3.56,3.45l-1.17,6.16l-1.21,1.31l-3.77,0.05l-2.43,0.86l-1.52,0.11l-3.51,-2.03l-4.66,0.99l-5.04,5.47l-2.34,0.91l-2.87,2.56l-2.39,0.56l-1.7,1.53l-6.41,1.44l-2.13,1.95l-2,8.27l-1.74,2.95l-1.67,4.82l-1.7,1.4l-0.73,2l1.17,5.13l1.73,3.06l-0.8,1.92l-0.13,6.36l-1.15,2.45l-0.31,2.98l0,0l-2.71,-1.92l-3.48,-0.27l-1.35,-2l-0.99,-2.86l-2.13,-1.62l-0.14,-1.65l1.64,-1.81l-0.08,-0.53l-3.88,-1.95l-1.42,-4.3l-3.21,-1.39l2.89,-3.25l-0.37,-1.31l1.41,-4.11l1.91,-1.09l3.39,-0.35l-0.39,-1.35l0.56,-5l-1.8,-1.21l-4.27,0.94l-2.15,1.34l-6.19,-8.03l-0.88,0.07l-0.84,-1.44l0.61,-1.19l-0.36,-1.22l-1.79,0.03l-1.93,-1.33l0.18,-0.71l1.76,-0.66l1.75,-2.04l0.28,-4.96l1.77,-6.16l-0.89,-2.65l0.21,-3.72l-1.11,-5l-0.84,-1.03l-4.62,-1.46l-0.95,-2.05l-4.09,0.15l-2.78,-1.51l-2.82,0.47l-3.16,2.49l0,0l-0.49,-0.08l14.71,-11.83l2.35,0.23l1.17,-0.92l1.98,-3.32l1.55,-1.17l0.62,-2.88l3.56,-2.78l2.35,-7.79l1.96,-1.54l2.3,-3.21l0.27,-3.1l0.79,-0.81l-1.04,-1.58l3.68,-3.09l0.37,-4.02l2.11,-2.28l0.98,-4.63l-0.43,-0.53l-0.99,0.16l-0.22,-1.11l1.14,-0.15l0.57,-0.74l0.55,-5.77l1.24,-1.48l0,0l0.87,-0.24l0.87,-1.82l1.34,0.98l0.45,1.84l1.19,0.12l0.77,-1.36l0.61,2.93l0.99,0.04l0.36,-1.43l2.54,0.49l0.5,0.69l-1.43,1.7l0.69,1.25l1.7,-3.58l0.45,0l0.4,1.6l-1.14,1.9l0.08,2.71l0.72,0.45l1.54,-1.06l-0.33,-1.6l1.32,-1.43l1.05,-0.25l2.13,0.59l1.5,-1.11l0.05,0.92l-1.49,1.74l0.59,0.58l1.35,-0.97l0.58,0.79l-0.14,1.21l1.63,1.75l0.86,-0.44l1.58,0.67l0.77,2.4l-0.11,0.95l-2.19,2.73l-0.28,1.55l2.35,-2.72l0.83,-0.03l0.87,0.81l0.52,1.89l-0.27,1.23l-0.97,0.19l-2.19,2.4l-1.71,6.65L458.57,128.92z"/>
		<path id="BR-PB" title="Paraíba" class="land" d="M610.43,199.15L607.93,197.09L604.46,196.62L602.15,197.69L600.67,198.97L600.22,200.77L598.32,201.8L595.17,202.23L594.37,203.36L588.31,203.39L586.15,204.91L584.33,205.01L582.9,206.46L583.3,207.73L582.9,208.21L581.12,209.74L578.13,210.74L575.58,209.01L575.29,205.98L574.15,205.66L572.2,206.2L574.94,202.68L574.22,200.81L574.55,199.56L577.66,198.19L577.16,196.8L573.66,194.88L569.96,196.55L569.03,198.06L566.5,199.24L562.28,202.76L558.02,203.96L557.25,203.63L556.67,201.71L553.85,202.68L552.86,202.35L551.06,200.35L551.06,200.35L553.69,195.49L553.35,194.3L551.42,193.33L551.44,191.67L550.27,190.25L550.39,189.32L552.31,187L551.79,185.69L553.74,181L553.74,181L554.31,180.54L556.24,182.18L560.02,183.21L565.23,179.71L565.74,177.72L574.25,175.43L574.78,175.87L574.79,177.06L571.8,180.27L570.98,182.97L569.51,183.91L569.43,185.63L572.96,186.15L573.88,187.99L577.03,186.73L580.75,186.95L581.64,188.12L581.12,189.66L581.95,190.4L584.3,189.47L584.8,188.73L585.35,187.52L584.72,185.16L585.2,184.57L586.21,184.89L584.96,182.58L585.27,181.1L587.09,179.75L588.47,179.7L589.41,181.58L593.36,182.33L599.19,181.94L603.82,183.34L609.29,182.91L609.29,182.91L609.38,185.31L610.83,189.7L610.31,192.61L611.4,190.37L611.41,192.35L612,193.36L611.73,198.54L611.37,199.14z"/>
		<path id="BR-PE" title="Pernambuco" class="land" d="M558.28,227.19L557.05,223.21L554.94,222.35L553.99,221.15L554.6,220.26L554.13,219.32L552.7,219.77L551.98,221.66L551.05,219.75L549.47,218.6L544.12,217.43L542.77,216.62L541.94,215.18L540.45,214.62L535.68,216.63L534.91,218.68L532.39,219.38L532.47,221.33L531.37,222.57L528.98,223.6L526.81,223.18L525.54,227.62L520.89,229.65L519.05,229.03L519.97,227.35L519.71,225.35L517.5,224.44L516.4,219.26L513.59,217.88L509.33,217.45L509.33,217.45L511.95,216.18L514.46,213.6L517.72,211.99L521.61,208.12L522.35,206.36L522.41,204.09L520.5,201.97L520.57,199.78L519.91,197.7L520.54,196.92L522.33,196.76L522.33,196.76L528.15,197.2L531.92,196.21L536.29,196.53L540.97,199.26L542.44,201.32L544.58,202.37L545.21,204.01L546.86,203.96L548.4,201.67L551.06,200.35L551.06,200.35L552.86,202.35L553.85,202.68L556.67,201.71L557.25,203.63L558.02,203.96L562.28,202.76L566.5,199.24L569.03,198.06L569.96,196.55L573.66,194.88L577.16,196.8L577.66,198.19L574.55,199.56L574.22,200.81L574.94,202.68L572.2,206.2L574.15,205.66L575.29,205.98L575.58,209.01L578.13,210.74L581.12,209.74L582.9,208.21L583.3,207.73L582.9,206.46L584.33,205.01L586.15,204.91L588.31,203.39L594.37,203.36L595.17,202.23L598.32,201.8L600.22,200.77L600.67,198.97L602.15,197.69L604.46,196.62L607.93,197.09L610.43,199.15L610.43,199.15L611.31,199.38L611.86,200.6L610.48,202.87L611.65,205.28L606.44,220.61L606.44,220.61L601.35,219.32L597.32,220.8L595.08,219.95L593.08,220.19L589.23,224.17L587.42,225.28L586.26,225.23L584.4,226.29L580.09,226.11L577.59,226.76L573.9,225.23L569.45,221.09L566.7,220.91L565.7,219.69L562.41,224.27L560.24,225.03z"/>
		<path id="BR-PI" title="Piauí" class="land" d="M505.7,126.91L509.94,127.31L511.25,128.76L511.25,128.76L508.47,133.38L508.29,134.84L513.97,149L515.33,150.59L514.57,152.71L515.36,156.58L514.88,158.18L516.48,163.18L515.89,164.76L515.09,165.34L516.12,166.41L516.82,175.02L518.63,182.79L519.64,185.46L523.51,186.58L524.28,187.74L521.63,193.79L522.39,195.44L522.33,196.76L522.33,196.76L520.54,196.92L519.91,197.7L520.57,199.78L520.5,201.97L522.41,204.09L522.35,206.36L521.61,208.12L517.72,211.99L514.46,213.6L511.95,216.18L509.33,217.45L509.33,217.45L507.38,220.91L506.33,221.58L503.54,221.78L503.65,224.18L501.79,225.98L500.85,225.31L498.69,225.3L497.1,226.64L494.37,226.98L492.04,229.54L485.86,230.39L485.04,230.11L484.98,229.17L483.27,228.19L481.94,227.8L478.42,228.78L477.69,227.67L476.19,227.21L474.24,227.23L471,228.88L470.94,229.81L473.18,234.25L473.01,237.97L469.09,244.79L466.12,247.21L464.77,247.63L461.95,246.93L459.75,247.68L457.91,249.44L456.77,249.82L455.69,251.48L453.58,251.3L451.78,251.82L447.6,249.97L445.83,247.48L444.64,244.23L443.2,242.89L440.87,242.91L440.87,242.91L437.93,242.7L437.93,242.7L438.24,239.72L439.39,237.27L439.52,230.91L440.31,229L438.58,225.94L437.41,220.81L438.14,218.81L439.84,217.41L441.51,212.59L443.25,209.64L445.25,201.37L447.38,199.42L453.78,197.98L455.48,196.45L457.87,195.89L460.73,193.32L463.07,192.41L468.11,186.94L472.76,185.95L476.28,187.98L477.79,187.88L480.23,187.02L483.99,186.97L485.2,185.66L486.37,179.5L482.81,176.06L482.19,171.65L482.36,169.17L486.67,164.19L486.22,158.78L484.64,155.98L486.06,151.64L485.68,150.37L484.45,149.53L484.1,147.61L488.22,142.56L489.1,140.73L489.06,138.94L491.98,135.53L496.1,135.23L502.02,128.99L502.41,127.46L501.55,126.21L502.01,124.77L502.01,124.77z"/>
		<path id="BR-RN" title="Rio Grande do Norte" class="land" d="M609.29,182.91L603.82,183.34L599.19,181.94L593.36,182.33L589.41,181.58L588.47,179.7L587.09,179.75L585.27,181.1L584.96,182.58L586.21,184.89L585.2,184.57L584.72,185.16L585.35,187.52L584.8,188.73L584.3,189.47L581.95,190.4L581.12,189.66L581.64,188.12L580.75,186.95L577.03,186.73L573.88,187.99L572.96,186.15L569.43,185.63L569.51,183.91L570.98,182.97L571.8,180.27L574.79,177.06L574.78,175.87L574.25,175.43L565.74,177.72L565.23,179.71L560.02,183.21L556.24,182.18L554.31,180.54L553.74,181L553.74,181L552.44,181.21L552.78,179.24L555.03,176.11L557.35,176.29L559.38,173.68L560.78,171.24L561.28,168.83L562.99,167.14L566.29,160.45L568.9,158.44L573.79,156.85L573.79,156.85L575.12,158.36L579.47,158.76L581.16,160.51L582.48,161.01L585.81,160.69L588.69,161.21L593.56,160.24L599.33,161.2L601.28,162.06L602.94,163.82L605.25,168.56L607.4,178.16L608.12,178.7z"/>
		<path id="BR-SE" title="Sergipe" class="land" d="M569.94,261.69L567.04,262.58L562.55,259.96L561.83,259.03L562.15,256.83L558.15,251.56L559.04,248.91L560.74,248.92L561.87,249.67L564.42,248.68L565.41,247.55L564.65,244.8L565.39,242.3L565.47,239.19L562.73,236.09L561.46,233.59L561.24,231.45L561.91,230.3L561.91,230.3L568.37,233.28L572.05,234.23L577.47,237.3L578.77,239.75L586.24,244.25L586.84,245.56L586.84,245.56L584.46,246.32L579.89,249.26L577.37,252.36L576.11,249.42L575.12,249.58L575.46,250.74L576.46,251.19L576.41,252.95L575.14,255.04L574.24,254.02L573.25,253.86L574.58,255.16L574.32,256.93L572.53,260.11L571.75,260.26L571.93,258.4L573.02,256.8L572.21,256.43L571.12,259.83L571.4,260.55z"/>
		<path id="BR-TO" title="Tocantins" class="land" d="M433.35,281.82L427.99,283.24L423.69,285.68L417.61,286.68L413.31,289.66L411.34,286.8L410.79,286.77L410.28,290.07L409.59,290.15L406.24,289.47L403.11,288L403.45,285.7L398.92,286.23L396.16,285.89L394.55,288.18L393.41,288.13L391.69,281.32L389.5,278.13L386.85,281.49L385.22,287.43L384.59,287.66L377.43,284.52L373.5,284.12L368.9,282.69L369.42,280.35L370.64,278.47L370.67,276.76L368.3,279.15L367.1,282.71L367.1,282.71L365.34,282.18L364.36,278.84L365.1,276.08L364.66,273.03L364.14,272.45L364.6,267.57L363.5,265.32L364.53,263.06L363.14,261.72L363.08,260.86L364.96,254.87L365.54,248.95L368.28,242.54L368.72,239.4L369.82,238.15L371.03,235.24L371.03,235.24L372.65,231.55L373.78,227.1L378.36,220.82L381.51,218.89L384.33,213.12L385.42,212.32L387.18,207.17L387.84,203.13L385.28,200.77L384.52,198.94L387.36,194.58L386.87,189.73L389.53,187.6L395.44,185.25L395.53,183.24L396.39,181.97L397.9,180.63L399.19,180.48L399.34,177.48L401.44,176.54L402.37,173.79L401.35,172.45L401.26,171.05L403.24,170.32L403.64,169.02L401.12,167.4L400.1,165.74L396.94,165.87L394.65,165.06L394.65,165.06L397.8,162.57L400.63,162.09L403.41,163.61L407.5,163.46L408.45,165.5L413.07,166.96L413.91,167.99L415.02,172.99L414.81,176.71L415.7,179.36L413.93,185.51L413.65,190.47L411.9,192.51L410.14,193.18L409.96,193.89L411.9,195.21L413.69,195.18L414.05,196.41L413.43,197.6L414.28,199.04L415.16,198.97L421.35,207L423.49,205.66L427.76,204.72L429.56,205.94L429,210.94L429.39,212.29L426,212.64L424.09,213.73L422.68,217.84L423.05,219.14L420.16,222.39L423.38,223.79L424.8,228.08L428.68,230.03L428.77,230.56L427.13,232.37L427.26,234.02L429.4,235.64L430.39,238.51L431.73,240.51L435.22,240.78L437.93,242.7L437.93,242.7L440.87,242.91L440.87,242.91L439.4,245.01L435.58,247.03L432.37,249.65L433.47,251.82L431.2,253.09L429.68,256.58L428.17,258.46L428.4,259.38L430.26,261.33L433.85,262L435.72,262.99L435.77,263.75L433.17,265.01L432.74,265.97L433.18,266.8L435.13,266.91L436,268.06L431.94,270.86L432.05,275.88L434.45,277.03L434.67,278.51L433.31,280.89z"/>
	</g>
</svg>